<svg width="24" height="24" viewBox="0 0 24 24" fill="none" xmlns="http://www.w3.org/2000/svg">
<path d="M21.0018 5.83537V8.26572C21.0018 10.291 20.1917 11.1011 18.1663 11.1011H15.7359C13.7106 11.1011 12.9005 10.291 12.9005 8.26572V5.83537C12.9005 3.8101 13.7106 3 15.7359 3H18.1663C20.1917 3 21.0018 3.8101 21.0018 5.83537Z" fill="white" stroke="#064771" stroke-width="1.5" stroke-linecap="round" stroke-linejoin="round"/>
<path d="M11.1013 15.7338V18.1641C11.1013 20.1894 10.2912 20.9995 8.26583 20.9995H5.83542C3.81008 20.9995 2.99994 20.1894 2.99994 18.1641V15.7338C2.99994 13.7085 3.81008 12.8984 5.83542 12.8984H8.26583C10.2912 12.8984 11.1013 13.7085 11.1013 15.7338Z" fill="white" stroke="#064771" stroke-width="1.5" stroke-linecap="round" stroke-linejoin="round"/>
<path d="M16.8438 11.1007V13.459C16.8438 15.8804 15.8806 16.8435 13.4592 16.8435H11.1008V15.7363C11.1008 13.7111 10.2906 12.901 8.26533 12.901H7.15814V10.5426C7.15814 8.12134 8.12131 7.1582 10.5427 7.1582H12.9011V8.26536C12.9011 10.2906 13.7112 11.1007 15.7366 11.1007H16.8438Z" stroke="#064771" stroke-width="1.5" stroke-linecap="round" stroke-linejoin="round"/>
</svg>
