<svg width="67" height="67" viewBox="0 0 67 67" fill="none" xmlns="http://www.w3.org/2000/svg">
<path d="M42.6069 15.1038L51.1022 23.6077L54.0271 20.6858L45.5318 12.1819L42.6069 15.1038ZM25.547 52.0877L14.2008 40.7301L11.2759 43.6519L22.6222 55.0097L25.547 52.0877ZM47.6904 39.3909L42.4066 41.3761L43.8607 45.2463L49.1445 43.2611L47.6904 39.3909ZM24.906 23.8119L26.8201 18.5879L22.9382 17.1656L21.0241 22.3896L24.906 23.8119ZM16.6595 31.4098C18.6204 30.8691 20.1124 30.4893 21.3326 29.6109L18.917 26.2557C18.4404 26.5989 17.8216 26.8009 15.5607 27.4243L16.6595 31.4098ZM21.0241 22.3896C20.2167 24.5934 19.9641 25.1948 19.5827 25.6423L22.7293 28.3238C23.7043 27.1798 24.2056 25.7235 24.906 23.8119L21.0241 22.3896ZM21.3326 29.6109C21.8482 29.2397 22.3172 28.8075 22.7293 28.3238L19.5827 25.6423C19.3862 25.8729 19.1627 26.0789 18.917 26.2557L21.3326 29.6109ZM42.4066 41.3761C40.5073 42.0897 39.0595 42.6015 37.9251 43.5838L40.6316 46.7093C41.0748 46.3254 41.6712 46.069 43.8607 45.2463L42.4066 41.3761ZM38.8723 50.7129C39.4933 48.4561 39.6948 47.8377 40.0368 47.3606L36.6779 44.9506C35.8034 46.1696 35.4249 47.6585 34.8861 49.6162L38.8723 50.7129ZM37.9251 43.5838C37.4573 43.989 37.0387 44.4476 36.6779 44.9506L40.0368 47.3606C40.2091 47.1208 40.4086 46.9022 40.6316 46.7093L37.9251 43.5838ZM14.2008 40.7301C12.4199 38.9474 11.2122 37.7339 10.4286 36.7494C9.64223 35.7613 9.56103 35.3335 9.55982 35.1417L5.42567 35.1679C5.43581 36.7725 6.23267 38.1161 7.19388 39.3239C8.15782 40.5349 9.56729 41.9414 11.2759 43.6519L14.2008 40.7301ZM15.5607 27.4243C13.2311 28.0666 11.3114 28.5925 9.87546 29.1691C8.44349 29.7438 7.08678 30.5188 6.28575 31.9095L9.86832 33.9728C9.96374 33.8072 10.2447 33.4756 11.4157 33.0057C12.5827 32.5371 14.2313 32.0793 16.6595 31.4098L15.5607 27.4243ZM9.55982 35.1417C9.55723 34.7313 9.66376 34.3281 9.86832 33.9728L6.28575 31.9095C5.71526 32.9001 5.41844 34.0246 5.42567 35.1679L9.55982 35.1417ZM22.6222 55.0097C24.3417 56.731 25.7556 58.1507 26.9733 59.1205C28.1875 60.0877 29.5405 60.8889 31.1562 60.8914L31.1623 56.7571C30.971 56.7569 30.5424 56.678 29.5491 55.8867C28.5591 55.0982 27.3392 53.8819 25.547 52.0877L22.6222 55.0097ZM34.8861 49.6162C34.2131 52.0623 33.7528 53.7234 33.2812 54.8987C32.8077 56.078 32.4736 56.3591 32.3066 56.4545L34.3558 60.0452C35.7587 59.2446 36.5393 57.8797 37.1178 56.4385C37.6979 54.9935 38.2266 53.0598 38.8723 50.7129L34.8861 49.6162ZM31.1562 60.8914C32.2782 60.893 33.3812 60.6014 34.3558 60.0452L32.3066 56.4545C31.958 56.6535 31.5636 56.7577 31.1623 56.7571L31.1562 60.8914ZM51.1022 23.6077C54.0334 26.5417 56.0611 28.5793 57.3055 30.2586C58.5279 31.9084 58.6687 32.7863 58.5193 33.4767L62.5601 34.3504C63.0835 31.9305 62.1192 29.8105 60.6273 27.7971C59.1571 25.8132 56.8612 23.5227 54.0271 20.6858L51.1022 23.6077ZM49.1445 43.2611C52.8968 41.8513 55.9338 40.716 58.0919 39.5182C60.2825 38.3025 62.0368 36.7709 62.5601 34.3504L58.5193 33.4767C58.37 34.1668 57.8799 34.9074 56.0857 35.9032C54.2591 36.9169 51.5713 37.9329 47.6904 39.3909L49.1445 43.2611ZM45.5318 12.1819C42.6767 9.32392 40.3725 7.00966 38.3784 5.52919C36.3562 4.02783 34.2246 3.0562 31.7943 3.59241L32.685 7.62958C33.3733 7.47771 34.253 7.61538 35.9142 8.84863C37.6034 10.1028 39.6548 12.1485 42.6069 15.1038L45.5318 12.1819ZM26.8201 18.5879C28.2578 14.6641 29.26 11.9446 30.2662 10.0955C31.2557 8.27708 31.9966 7.7815 32.685 7.62958L31.7943 3.59241C29.3644 4.12854 27.8389 5.90662 26.6347 8.11943C25.4473 10.3016 24.3285 13.3709 22.9382 17.1656L26.8201 18.5879Z" fill="#767676"/>
<path d="M4.04989 59.1747C3.24305 59.9823 3.24371 61.2912 4.05137 62.0982C4.85904 62.9049 6.16788 62.9043 6.97472 62.0965L4.04989 59.1747ZM19.7998 49.2586C20.6066 48.4508 20.6059 47.1419 19.7983 46.3351C18.9906 45.5284 17.6818 45.529 16.8749 46.3365L19.7998 49.2586ZM6.97472 62.0965L19.7998 49.2586L16.8749 46.3365L4.04989 59.1747L6.97472 62.0965Z" fill="#767676"/>
</svg>
