<svg width="67" height="67" viewBox="0 0 67 67" fill="none" xmlns="http://www.w3.org/2000/svg">
<path d="M60.6387 33.3192C60.6426 38.738 59.0493 44.0377 56.0578 48.5559C53.0663 53.0741 48.8094 56.6104 43.8193 58.7226C38.8291 60.8348 33.3271 61.4293 28.0009 60.4318C22.6748 59.4343 17.7608 56.889 13.8732 53.1141C9.98563 49.3392 7.29697 44.5021 6.1433 39.2076C4.98963 33.913 5.42213 28.3959 7.38675 23.3458C9.35136 18.2957 12.7609 13.9367 17.1892 10.8137C21.6176 7.69073 26.8681 5.94226 32.2847 5.78689C32.8059 5.71947 33.3337 5.71947 33.8549 5.78689C41.0244 5.98629 47.8334 8.97379 52.8349 14.1144C57.8364 19.255 60.636 26.147 60.6387 33.3192ZM23.8488 55.1418C24.4384 55.3901 25.036 55.6141 25.6418 55.8137C22.0308 49.5467 20.1425 42.4356 20.1688 35.2028H9.44554C9.79539 39.525 11.3229 43.6688 13.8622 47.1841C16.4015 50.6993 19.8554 53.4515 23.8488 55.1418ZM11.2316 24.1C10.2549 26.4056 9.65424 28.8529 9.4525 31.3486H20.1688C20.147 24.1593 22.0075 17.0895 25.5652 10.8421C24.9873 11.0348 24.4152 11.2506 23.8488 11.4897C18.1669 13.8978 13.6428 18.4194 11.2316 24.1ZM42.1132 31.3486C42.0275 28.6477 41.7236 25.9582 41.2045 23.3062C40.6968 20.593 39.8633 17.9511 38.7221 15.4378C37.1659 12.1234 35.2092 9.9613 33.5102 9.63403C33.2166 9.62965 32.923 9.62965 32.6294 9.63403C30.9304 9.9613 28.9737 12.1234 27.4174 15.4413C26.2775 17.9548 25.4451 20.5967 24.9386 23.3097C24.4197 25.9605 24.1158 28.6489 24.0299 31.3486H42.1132ZM38.7221 51.1101C39.8634 48.5968 40.6969 45.9549 41.2045 43.2417C41.7221 40.5908 42.0248 37.9024 42.1097 35.2028H24.0334C24.1192 37.9037 24.4231 40.5932 24.942 43.2452C25.4488 45.957 26.2811 48.5978 27.4209 51.1101C29.1165 54.717 31.282 56.9591 33.075 56.9591C34.868 56.9591 37.0336 54.717 38.7256 51.1101H38.7221ZM54.9184 42.5384C55.906 40.2057 56.5092 37.7284 56.7045 35.2028H45.9743C46.0021 42.438 44.1138 49.5517 40.5012 55.8207C41.107 55.6211 41.707 55.3959 42.3012 55.1452C47.9825 52.738 52.5065 48.2178 54.9184 42.5384ZM42.3012 11.4897C41.7342 11.2504 41.1582 11.0332 40.5743 10.8387C44.1324 17.0859 45.9929 24.1558 45.9708 31.3452H56.6975C56.334 27.0382 54.8009 22.9124 52.2637 19.4131C49.7266 15.9139 46.2817 13.1741 42.3012 11.4897Z" fill="#767676"/>
</svg>
