<svg width="30" height="30" viewBox="0 0 30 30" fill="none" xmlns="http://www.w3.org/2000/svg">
<path d="M15.6519 5.25938C16.1234 5.18386 16.8841 5.36377 17.252 5.66928C17.7521 6.08455 18.2209 6.59319 18.6827 7.0562C19.3459 7.72293 20.0125 8.38635 20.6823 9.04642L21.9444 10.3159C23.0265 11.3955 23.7884 12.135 24.3033 13.6443C25.0559 15.8501 24.6635 18.2986 23.1745 20.1122C22.7145 20.6726 22.1773 21.1643 21.6771 21.6769C20.8242 22.5508 19.9769 23.4104 18.7876 23.8059C17.5739 24.2452 16.6148 24.1588 15.3533 24.1589L12.627 24.159C12.2537 24.1602 11.554 24.1799 11.2113 24.132C10.1553 23.9845 9.21249 23.5527 8.45702 22.8002C7.70243 22.0484 7.22135 21.0655 7.09047 20.0084C7.02634 19.4454 7.05777 18.2545 7.05673 17.6456C6.94215 17.4811 6.71003 17.2685 6.56156 17.1228L5.80918 16.3758C5.28119 15.8489 4.97335 15.5803 4.79275 14.8303C4.65523 14.2335 4.75611 13.6067 5.07391 13.0832C5.43816 12.4908 5.99354 12.1524 6.65753 11.9918C6.55203 11.7685 6.41379 11.5043 6.34591 11.2686C5.81891 9.4382 7.94806 7.60612 9.63918 8.60009C9.79036 8.13814 9.83903 7.81778 10.1502 7.43361C11.0464 6.32711 12.4777 6.25349 13.5662 7.11641C13.8683 6.05679 14.5369 5.3794 15.6519 5.25938Z" fill="#064771"/>
<path d="M15.8255 6.27455C16.2899 6.25495 16.6578 6.49675 16.9739 6.81049C17.9818 7.81094 18.9799 8.82133 19.9846 9.82493L21.2864 11.1226C21.834 11.6691 22.3517 12.1631 22.7701 12.8198C23.2711 13.6062 23.6516 14.8077 23.6625 15.7343C23.6809 17.3456 23.0198 18.8699 21.8811 20.0054C21.4971 20.3884 21.0056 20.8686 20.6464 21.2426C19.4402 22.4986 18.4372 23.1159 16.6567 23.1018C15.6324 23.0906 14.6154 23.1208 13.5901 23.1033C11.9623 23.0753 10.4683 23.3622 9.20102 22.079C8.10395 20.9682 8.1296 20.1132 8.1108 18.6699C8.13015 18.6923 8.14991 18.7143 8.17006 18.7359C8.55287 19.1449 8.99044 19.5776 9.41204 19.9416C9.70037 20.1906 10.2047 19.8154 10.184 19.502C10.1598 19.1365 9.59822 18.6906 9.33456 18.4319L7.04323 16.1353C6.70887 15.8 6.2431 15.394 5.97752 15.0331C5.42565 14.2831 5.97547 13.0693 6.93361 13.0497C7.1359 13.0455 7.50513 13.0506 7.67056 13.1561C8.27858 13.5437 8.72711 14.1825 9.26886 14.6574C9.39414 14.7671 9.55281 14.8322 9.71453 14.8179C9.84698 14.8068 9.96938 14.7428 10.0542 14.6405C10.1377 14.5399 10.2159 14.3546 10.1802 14.2239C10.0498 13.7472 7.91768 12.0143 7.50333 11.3549C7.40625 11.2005 7.3519 11.0216 7.33348 10.8408C7.29836 10.4957 7.38485 10.1473 7.60749 9.87645C7.84147 9.59178 8.15646 9.42802 8.52326 9.39453C8.78683 9.37018 9.05139 9.42894 9.27988 9.56257C9.5242 9.70646 9.84862 10.0515 10.0569 10.2595L11.1518 11.3601C11.3552 11.5664 11.9737 12.288 12.2753 12.2442C12.6151 12.2058 12.9266 11.7915 12.6895 11.4787C12.185 10.8132 11.4501 10.2795 10.9288 9.6227C10.5953 9.20236 10.613 8.47371 10.9667 8.07792C11.934 6.99552 12.8501 7.77764 13.592 8.60983C13.8836 8.87944 14.1746 9.23974 14.4754 9.49159C14.7648 9.73399 15.2886 9.64272 15.3282 9.20801C15.3689 8.76197 15.0687 8.68751 14.8465 8.37817C14.7128 8.18955 14.628 7.97074 14.5996 7.7413C14.5013 6.94636 15.0538 6.35719 15.8255 6.27455Z" fill="#EDF8FF"/>
</svg>
