<svg width="32" height="32" viewBox="0 0 32 32" fill="none" xmlns="http://www.w3.org/2000/svg">
<g clip-path="url(#clip0_1309_61013)">
<path fill-rule="evenodd" clip-rule="evenodd" d="M4.55337 -0.11377C3.15237 -0.11377 2.01688 1.02223 2.01688 2.42323V29.3437C2.01688 30.7452 3.15237 31.8807 4.55337 31.8807H27.4403C28.8408 31.8807 29.9773 30.7452 29.9773 29.3437V10.0412L20.5263 -0.11377H4.55337Z" fill="#FFC35E"/>
<path opacity="0.5" fill-rule="evenodd" clip-rule="evenodd" d="M20.5489 -0.116943V7.16354C20.5489 7.99154 21.1009 10.059 23.6009 10.059H30.0004L20.5489 -0.116943Z" fill="white"/>
<path d="M5.08378 28.4331H4.32959L6.51093 22.4924H7.25351L9.43484 28.4331H8.68066L6.90542 23.4323H6.85901L5.08378 28.4331ZM5.36224 26.1125H8.40219V26.7507H5.36224V26.1125Z" fill="#794C04"/>
<path d="M11.0795 22.4924V28.4331H10.3602V22.4924H11.0795Z" fill="#794C04"/>
</g>
<defs>
<clipPath id="clip0_1309_61013">
<rect width="31.9999" height="31.9999" fill="white"/>
</clipPath>
</defs>
</svg>
