<svg width="32" height="32" viewBox="0 0 32 32" fill="none" xmlns="http://www.w3.org/2000/svg">
<g clip-path="url(#clip0_1309_61021)">
<path fill-rule="evenodd" clip-rule="evenodd" d="M4.84254 -0.0490723C3.44104 -0.0490723 2.30554 1.08693 2.30554 2.48792V29.4084C2.30554 30.8099 3.44104 31.9454 4.84254 31.9454H27.7295C29.13 31.9454 30.2665 30.8099 30.2665 29.4084V10.1059L20.8155 -0.0490723H4.84254Z" fill="#21A366"/>
<path opacity="0.5" fill-rule="evenodd" clip-rule="evenodd" d="M20.8195 -0.0493164V7.23117C20.8195 8.05917 21.3715 10.1272 23.8715 10.1272H30.271L20.8195 -0.0493164Z" fill="#DCFFEF"/>
<path d="M9.4073 24.3188H8.68792C8.64538 24.1119 8.57093 23.9301 8.46457 23.7734C8.36014 23.6168 8.23251 23.4853 8.08167 23.3789C7.93277 23.2707 7.76743 23.1894 7.58565 23.1353C7.40387 23.0811 7.21436 23.0541 7.01711 23.0541C6.65742 23.0541 6.33158 23.145 6.03957 23.3267C5.7495 23.5085 5.51841 23.7763 5.3463 24.1302C5.17613 24.4841 5.09104 24.9183 5.09104 25.4327C5.09104 25.947 5.17613 26.3812 5.3463 26.7351C5.51841 27.089 5.7495 27.3568 6.03957 27.5386C6.33158 27.7203 6.65742 27.8112 7.01711 27.8112C7.21436 27.8112 7.40387 27.7842 7.58565 27.73C7.76743 27.6759 7.93277 27.5956 8.08167 27.4893C8.23251 27.381 8.36014 27.2485 8.46457 27.0919C8.57093 26.9333 8.64538 26.7515 8.68792 26.5465H9.4073C9.35315 26.8501 9.25453 27.1218 9.11143 27.3616C8.96832 27.6014 8.79041 27.8054 8.57769 27.9737C8.36498 28.14 8.12615 28.2666 7.86122 28.3537C7.59822 28.4407 7.31685 28.4842 7.01711 28.4842C6.51045 28.4842 6.05988 28.3604 5.66538 28.1129C5.27088 27.8654 4.96051 27.5134 4.73425 27.0571C4.50799 26.6007 4.39487 26.0592 4.39487 25.4327C4.39487 24.8061 4.50799 24.2646 4.73425 23.8083C4.96051 23.3519 5.27088 22.9999 5.66538 22.7524C6.05988 22.5049 6.51045 22.3811 7.01711 22.3811C7.31685 22.3811 7.59822 22.4246 7.86122 22.5116C8.12615 22.5987 8.36498 22.7263 8.57769 22.8945C8.79041 23.0608 8.96832 23.2639 9.11143 23.5037C9.25453 23.7415 9.35315 24.0132 9.4073 24.3188Z" fill="white"/>
<path d="M13.8186 23.9475C13.7837 23.6535 13.6426 23.4254 13.3951 23.2629C13.1475 23.1005 12.8439 23.0193 12.4842 23.0193C12.2212 23.0193 11.9911 23.0618 11.7939 23.1469C11.5985 23.232 11.4458 23.349 11.3355 23.4979C11.2273 23.6468 11.1731 23.816 11.1731 24.0055C11.1731 24.1641 11.2108 24.3004 11.2862 24.4145C11.3636 24.5267 11.4622 24.6205 11.5821 24.6959C11.702 24.7694 11.8277 24.8303 11.9592 24.8786C12.0907 24.925 12.2116 24.9627 12.3218 24.9917L12.9251 25.1542C13.0798 25.1948 13.252 25.2509 13.4415 25.3224C13.6329 25.394 13.8157 25.4916 13.9897 25.6154C14.1657 25.7372 14.3107 25.8939 14.4248 26.0853C14.5389 26.2768 14.5959 26.5117 14.5959 26.7902C14.5959 27.1112 14.5118 27.4013 14.3436 27.6604C14.1773 27.9195 13.9336 28.1255 13.6126 28.2783C13.2935 28.431 12.9058 28.5074 12.4494 28.5074C12.024 28.5074 11.6556 28.4388 11.3442 28.3015C11.0348 28.1642 10.7912 27.9727 10.6133 27.7271C10.4373 27.4815 10.3377 27.1963 10.3145 26.8714H11.0571C11.0764 27.0957 11.1518 27.2814 11.2833 27.4283C11.4168 27.5734 11.585 27.6817 11.7881 27.7532C11.993 27.8228 12.2135 27.8576 12.4494 27.8576C12.724 27.8576 12.9706 27.8132 13.1891 27.7242C13.4076 27.6333 13.5807 27.5076 13.7083 27.3471C13.836 27.1847 13.8998 26.9952 13.8998 26.7786C13.8998 26.5813 13.8447 26.4208 13.7344 26.2971C13.6242 26.1733 13.4792 26.0727 13.2993 25.9954C13.1195 25.918 12.9251 25.8504 12.7163 25.7923L11.9853 25.5835C11.5212 25.4501 11.1538 25.2596 10.883 25.012C10.6123 24.7645 10.4769 24.4406 10.4769 24.0403C10.4769 23.7077 10.5669 23.4176 10.7467 23.1701C10.9285 22.9206 11.1721 22.7273 11.4777 22.59C11.7852 22.4507 12.1284 22.3811 12.5074 22.3811C12.8903 22.3811 13.2307 22.4498 13.5285 22.5871C13.8263 22.7224 14.0622 22.9081 14.2363 23.144C14.4122 23.3799 14.5051 23.6477 14.5147 23.9475H13.8186Z" fill="white"/>
<path d="M16.0224 22.4623L17.786 27.4632H17.8556L19.6193 22.4623H20.3734L18.1921 28.403H17.4495L15.2682 22.4623H16.0224Z" fill="white"/>
</g>
<defs>
<clipPath id="clip0_1309_61021">
<rect width="31.9999" height="31.9999" fill="white"/>
</clipPath>
</defs>
</svg>
