<svg width="32" height="32" viewBox="0 0 32 32" fill="none" xmlns="http://www.w3.org/2000/svg">
<g clip-path="url(#clip0_1309_61016)">
<path fill-rule="evenodd" clip-rule="evenodd" d="M4.84057 -0.0351562C3.43957 -0.0351562 2.30408 1.10134 2.30408 2.50184V29.4223C2.30408 30.8238 3.43957 31.9593 4.84057 31.9593H27.7275C29.1285 31.9593 30.2645 30.8238 30.2645 29.4223V10.1198L20.813 -0.0351562H4.84057Z" fill="#FFC35E"/>
<path opacity="0.5" fill-rule="evenodd" clip-rule="evenodd" d="M20.8133 -0.0351562V7.24483C20.8133 8.07283 21.3653 10.1408 23.8653 10.1408H30.2653L20.8133 -0.0351562Z" fill="white"/>
<path d="M5.14273 28.5128V22.5722H8.72801V23.2103H5.86211V25.2176H8.54237V25.8558H5.86211V27.8747H8.77442V28.5128H5.14273Z" fill="#794C04"/>
<path d="M10.0246 28.5128V22.5722H12.0319C12.498 22.5722 12.8789 22.6563 13.1748 22.8245C13.4726 22.9909 13.6931 23.2161 13.8362 23.5004C13.9793 23.7847 14.0508 24.1018 14.0508 24.4518C14.0508 24.8019 13.9793 25.12 13.8362 25.4062C13.695 25.6924 13.4765 25.9206 13.1806 26.0908C12.8847 26.259 12.5057 26.3431 12.0435 26.3431H10.6048V25.705H12.0203C12.3394 25.705 12.5956 25.6498 12.789 25.5396C12.9824 25.4294 13.1226 25.2805 13.2096 25.0929C13.2986 24.9034 13.343 24.6897 13.343 24.4518C13.343 24.214 13.2986 24.0013 13.2096 23.8137C13.1226 23.6261 12.9814 23.4791 12.7861 23.3728C12.5908 23.2645 12.3317 23.2103 12.0087 23.2103H10.744V28.5128H10.0246Z" fill="#794C04"/>
<path d="M18.4585 24.0574C18.4236 23.7634 18.2825 23.5352 18.0349 23.3728C17.7874 23.2103 17.4838 23.1291 17.1241 23.1291C16.8611 23.1291 16.631 23.1717 16.4338 23.2568C16.2384 23.3418 16.0857 23.4588 15.9754 23.6077C15.8671 23.7566 15.813 23.9259 15.813 24.1154C15.813 24.2739 15.8507 24.4103 15.9261 24.5244C16.0035 24.6365 16.1021 24.7303 16.222 24.8057C16.3419 24.8792 16.4676 24.9401 16.5991 24.9885C16.7306 25.0349 16.8515 25.0726 16.9617 25.1016L17.565 25.264C17.7197 25.3047 17.8918 25.3607 18.0814 25.4323C18.2728 25.5038 18.4555 25.6015 18.6296 25.7253C18.8056 25.8471 18.9506 26.0037 19.0647 26.1952C19.1788 26.3866 19.2358 26.6216 19.2358 26.9C19.2358 27.2211 19.1517 27.5111 18.9835 27.7703C18.8172 28.0294 18.5735 28.2353 18.2525 28.3881C17.9334 28.5409 17.5457 28.6173 17.0893 28.6173C16.6639 28.6173 16.2955 28.5486 15.9841 28.4113C15.6747 28.274 15.4311 28.0826 15.2532 27.837C15.0772 27.5914 14.9776 27.3061 14.9544 26.9813H15.697C15.7163 27.2056 15.7917 27.3912 15.9232 27.5382C16.0567 27.6832 16.2249 27.7915 16.428 27.8631C16.6329 27.9327 16.8534 27.9675 17.0893 27.9675C17.3639 27.9675 17.6105 27.923 17.829 27.8341C18.0475 27.7432 18.2206 27.6175 18.3482 27.457C18.4759 27.2945 18.5397 27.105 18.5397 26.8884C18.5397 26.6912 18.4846 26.5307 18.3743 26.4069C18.2641 26.2832 18.1191 26.1826 17.9392 26.1053C17.7594 26.0279 17.565 25.9602 17.3562 25.9022L16.6252 25.6934C16.1611 25.5599 15.7937 25.3694 15.5229 25.1219C15.2522 24.8744 15.1168 24.5505 15.1168 24.1502C15.1168 23.8176 15.2068 23.5275 15.3866 23.28C15.5684 23.0305 15.812 22.8371 16.1176 22.6998C16.4251 22.5606 16.7683 22.491 17.1473 22.491C17.5302 22.491 17.8706 22.5596 18.1684 22.6969C18.4662 22.8323 18.7021 23.0179 18.8762 23.2539C19.0521 23.4898 19.145 23.7576 19.1546 24.0574H18.4585Z" fill="#794C04"/>
</g>
<defs>
<clipPath id="clip0_1309_61016">
<rect width="31.9999" height="31.9999" fill="white"/>
</clipPath>
</defs>
</svg>
