<svg width="32" height="32" viewBox="0 0 32 32" fill="none" xmlns="http://www.w3.org/2000/svg">
<g clip-path="url(#clip0_1309_61011)">
<path fill-rule="evenodd" clip-rule="evenodd" d="M4.57564 -0.0322266C3.17514 -0.0322266 2.03964 1.10377 2.03964 2.50477V29.4252C2.03964 30.8262 3.17564 31.9617 4.57564 31.9617H27.4631C28.8641 31.9617 30.0006 30.8262 30.0006 29.4252V10.1223L20.5486 -0.0322266H4.57564Z" fill="#898989"/>
<path opacity="0.5" fill-rule="evenodd" clip-rule="evenodd" d="M20.537 -0.0385742V7.24191C20.537 8.06991 21.089 10.1374 23.589 10.1374H29.9884L20.537 -0.0385742Z" fill="#151515"/>
<path d="M4.4415 28.5642V22.6235H8.00357V23.2617H5.16087V25.269H7.73671V25.9071H5.16087V28.5642H4.4415Z" fill="white"/>
<path d="M9.95503 22.6235V28.5642H9.23565V22.6235H9.95503Z" fill="white"/>
<path d="M11.3974 28.5642V22.6235H12.1168V27.926H14.8783V28.5642H11.3974Z" fill="white"/>
<path d="M15.9921 28.5642V22.6235H19.5774V23.2617H16.7115V25.269H19.3918V25.9071H16.7115V27.926H19.6238V28.5642H15.9921Z" fill="white"/>
</g>
<defs>
<clipPath id="clip0_1309_61011">
<rect width="31.9999" height="31.9999" fill="white"/>
</clipPath>
</defs>
</svg>
