<svg width="32" height="32" viewBox="0 0 32 32" fill="none" xmlns="http://www.w3.org/2000/svg">
<g clip-path="url(#clip0_1309_61019)">
<path fill-rule="evenodd" clip-rule="evenodd" d="M4.84254 -0.0490723C3.44104 -0.0490723 2.30554 1.08693 2.30554 2.48792V29.4084C2.30554 30.8099 3.44104 31.9454 4.84254 31.9454H27.7295C29.13 31.9454 30.2665 30.8099 30.2665 29.4084V10.1059L20.8155 -0.0490723H4.84254Z" fill="#F70408"/>
<path opacity="0.5" fill-rule="evenodd" clip-rule="evenodd" d="M20.8195 -0.0493164V7.23117C20.8195 8.05917 21.3715 10.1272 23.8715 10.1272H30.271L20.8195 -0.0493164Z" fill="#FFA2A3"/>
<path d="M4.62692 28.4031V22.4624H6.63422C7.10026 22.4624 7.48122 22.5465 7.7771 22.7148C8.0749 22.8811 8.29536 23.1064 8.43846 23.3906C8.58156 23.6749 8.65311 23.992 8.65311 24.3421C8.65311 24.6921 8.58156 25.0102 8.43846 25.2964C8.29729 25.5826 8.07877 25.8108 7.7829 25.981C7.48702 26.1492 7.108 26.2333 6.64582 26.2333H5.20706V25.5952H6.62261C6.94169 25.5952 7.19792 25.5401 7.3913 25.4298C7.58468 25.3196 7.72488 25.1707 7.8119 24.9831C7.90086 24.7936 7.94534 24.5799 7.94534 24.3421C7.94534 24.1042 7.90086 23.8915 7.8119 23.7039C7.72488 23.5163 7.58372 23.3694 7.3884 23.263C7.19309 23.1547 6.93396 23.1006 6.61101 23.1006H5.3463V28.4031H4.62692Z" fill="white"/>
<path d="M11.6452 28.4031H9.81195V22.4624H11.7264C12.3027 22.4624 12.7958 22.5813 13.2058 22.8192C13.6157 23.0551 13.93 23.3945 14.1485 23.8373C14.367 24.2782 14.4763 24.8062 14.4763 25.4211C14.4763 26.0399 14.3661 26.5727 14.1456 27.0194C13.9252 27.4642 13.6041 27.8065 13.1826 28.0463C12.761 28.2841 12.2485 28.4031 11.6452 28.4031ZM10.5313 27.7649H11.5988C12.09 27.7649 12.497 27.6701 12.82 27.4806C13.1429 27.2911 13.3837 27.0214 13.5423 26.6713C13.7008 26.3213 13.7801 25.9046 13.7801 25.4211C13.7801 24.9415 13.7018 24.5287 13.5452 24.1825C13.3885 23.8344 13.1545 23.5676 12.8432 23.3819C12.5318 23.1943 12.1441 23.1006 11.68 23.1006H10.5313V27.7649Z" fill="white"/>
<path d="M15.683 28.4031V22.4624H19.2451V23.1006H16.4024V25.1079H18.9782V25.746H16.4024V28.4031H15.683Z" fill="white"/>
</g>
<defs>
<clipPath id="clip0_1309_61019">
<rect width="31.9999" height="31.9999" fill="white"/>
</clipPath>
</defs>
</svg>
