<svg width="32" height="32" viewBox="0 0 32 32" fill="none" xmlns="http://www.w3.org/2000/svg">
<g clip-path="url(#clip0_1309_61137)">
<path fill-rule="evenodd" clip-rule="evenodd" d="M4.55476 0.00105748C3.885 -0.00429034 3.24034 0.255639 2.76161 0.724065C2.28288 1.19249 2.00898 1.83134 1.99976 2.50106V29.4411C1.99643 29.7778 2.0602 30.1117 2.18736 30.4235C2.31452 30.7353 2.50251 31.0186 2.74037 31.2569C2.97822 31.4952 3.26117 31.6838 3.57269 31.8115C3.88421 31.9393 4.21806 32.0037 4.55476 32.0011H27.4448C27.7815 32.0037 28.1153 31.9393 28.4268 31.8115C28.7384 31.6838 29.0213 31.4952 29.2592 31.2569C29.497 31.0186 29.685 30.7353 29.8122 30.4235C29.9393 30.1117 30.0031 29.7778 29.9998 29.4411V10.1411L20.5298 0.00105748H4.55476Z" fill="#EAF02F"/>
<path opacity="0.5" fill-rule="evenodd" clip-rule="evenodd" d="M20.5352 0.000976562V7.28098C20.5339 7.67521 20.6133 8.06555 20.7684 8.42797C20.9235 8.7904 21.1512 9.11725 21.4374 9.38842C21.7235 9.6596 22.0621 9.86935 22.4324 10.0048C22.8026 10.1402 23.1966 10.1985 23.5902 10.176H30.0002L20.5352 0.000976562Z" fill="#909409"/>
<path d="M8.63872 25.2474H5.6617C5.53011 25.2474 5.4039 25.1951 5.31085 25.1021C5.2178 25.009 5.16553 24.8828 5.16553 24.7512V20.7819C5.16553 20.6503 5.2178 20.5241 5.31085 20.431C5.4039 20.338 5.53011 20.2857 5.6617 20.2857H8.63872L13.1043 16.8125V28.7206L8.63872 25.2474Z" stroke="#4B4B4B" stroke-width="0.498767" stroke-linecap="round" stroke-linejoin="round"/>
<path d="M8.63867 20.2856V25.2474" stroke="#4B4B4B" stroke-width="0.498767" stroke-linecap="round" stroke-linejoin="round"/>
<path d="M15.5851 21.4548C15.9043 21.8173 16.0804 22.2836 16.0804 22.7666C16.0804 23.2495 15.9043 23.7159 15.5851 24.0783" stroke="#4B4B4B" stroke-width="0.498767" stroke-linecap="round" stroke-linejoin="round"/>
<path d="M17.4252 19.7896C18.1575 20.6083 18.5624 21.6682 18.5624 22.7666C18.5624 23.865 18.1575 24.9249 17.4252 25.7436" stroke="#4B4B4B" stroke-width="0.498767" stroke-linecap="round" stroke-linejoin="round"/>
</g>
<defs>
<clipPath id="clip0_1309_61137">
<rect width="32" height="32" fill="white"/>
</clipPath>
</defs>
</svg>
