<svg width="32" height="32" viewBox="0 0 32 32" fill="none" xmlns="http://www.w3.org/2000/svg">
<g clip-path="url(#clip0_1309_61009)">
<path fill-rule="evenodd" clip-rule="evenodd" d="M4.66342 0.00561523C3.26242 0.00561523 2.12692 1.14161 2.12692 2.54261V29.4631C2.12692 30.8646 3.26242 32.0001 4.66342 32.0001H27.5504C28.9509 32.0001 30.0874 30.8646 30.0874 29.4631V10.1606L20.6364 0.00561523H4.66342Z" fill="#1A66F3"/>
<path d="M16.1134 21.11C16.5699 21.3931 16.5699 22.1258 16.1134 22.4089L13.3565 24.1179C12.9127 24.393 12.3674 24.035 12.3674 23.4685V20.0503C12.3674 19.4839 12.9127 19.1259 13.3565 19.4009L16.1134 21.11Z" stroke="white" stroke-width="0.498766"/>
<path d="M6.13884 21.2537C5.77414 18.6669 5.59178 17.3735 6.36682 16.5364C7.14186 15.6992 8.52162 15.6992 11.2811 15.6992H16.723C19.4825 15.6992 20.8622 15.6992 21.6373 16.5364C22.4123 17.3735 22.2299 18.6669 21.8653 21.2537L21.5194 23.7067C21.2334 25.7353 21.0904 26.7496 20.3568 27.357C19.6232 27.9644 18.5411 27.9644 16.3771 27.9644H11.627C9.46296 27.9644 8.38094 27.9644 7.64732 27.357C6.91371 26.7496 6.77071 25.7353 6.4847 23.7067L6.13884 21.2537Z" stroke="white" stroke-width="0.498766"/>
<path opacity="0.5" fill-rule="evenodd" clip-rule="evenodd" d="M20.6587 0.00244141V7.28293C20.6587 8.11093 21.2107 10.1784 23.7107 10.1784H30.1102L20.6587 0.00244141Z" fill="white"/>
</g>
<defs>
<clipPath id="clip0_1309_61009">
<rect width="31.9999" height="31.9999" fill="white"/>
</clipPath>
</defs>
</svg>
