<svg width="32" height="32" viewBox="0 0 32 32" fill="none" xmlns="http://www.w3.org/2000/svg">
<g clip-path="url(#clip0_1309_61022)">
<path fill-rule="evenodd" clip-rule="evenodd" d="M4.84254 -0.0490723C3.44104 -0.0490723 2.30554 1.08693 2.30554 2.48792V29.4084C2.30554 30.8099 3.44104 31.9454 4.84254 31.9454H27.7295C29.13 31.9454 30.2665 30.8099 30.2665 29.4084V10.1059L20.8155 -0.0490723H4.84254Z" fill="#21A366"/>
<path opacity="0.5" fill-rule="evenodd" clip-rule="evenodd" d="M20.8195 -0.0493164V7.23117C20.8195 8.05917 21.3715 10.1272 23.8715 10.1272H30.271L20.8195 -0.0493164Z" fill="#DCFFEF"/>
<path d="M4.97503 22.4623L6.50661 24.9337H6.55302L8.08459 22.4623H8.9316L7.06354 25.4327L8.9316 28.403H8.08459L6.55302 25.978H6.50661L4.97503 28.403H4.12802L6.04249 25.4327L4.12802 22.4623H4.97503Z" fill="white"/>
<path d="M9.86781 28.403V22.4623H10.5872V27.7648H13.3487V28.403H9.86781Z" fill="white"/>
<path d="M17.7113 23.9475C17.6765 23.6535 17.5354 23.4254 17.2878 23.2629C17.0403 23.1005 16.7367 23.0193 16.377 23.0193C16.114 23.0193 15.8839 23.0618 15.6866 23.1469C15.4913 23.232 15.3385 23.349 15.2283 23.4979C15.12 23.6468 15.0659 23.816 15.0659 24.0055C15.0659 24.1641 15.1036 24.3004 15.179 24.4145C15.2564 24.5267 15.355 24.6205 15.4749 24.6959C15.5948 24.7694 15.7205 24.8303 15.852 24.8786C15.9835 24.925 16.1043 24.9627 16.2146 24.9917L16.8179 25.1542C16.9726 25.1948 17.1447 25.2509 17.3342 25.3224C17.5257 25.394 17.7084 25.4916 17.8825 25.6154C18.0584 25.7372 18.2035 25.8939 18.3176 26.0853C18.4317 26.2768 18.4887 26.5117 18.4887 26.7902C18.4887 27.1112 18.4046 27.4013 18.2364 27.6604C18.0701 27.9195 17.8264 28.1255 17.5054 28.2783C17.1863 28.431 16.7986 28.5074 16.3422 28.5074C15.9168 28.5074 15.5484 28.4388 15.237 28.3015C14.9276 28.1642 14.684 27.9727 14.506 27.7271C14.3301 27.4815 14.2305 27.1963 14.2073 26.8714H14.9499C14.9692 27.0957 15.0446 27.2814 15.1761 27.4283C15.3095 27.5734 15.4778 27.6817 15.6808 27.7532C15.8858 27.8228 16.1063 27.8576 16.3422 27.8576C16.6168 27.8576 16.8634 27.8132 17.0819 27.7242C17.3004 27.6333 17.4735 27.5076 17.6011 27.3471C17.7287 27.1847 17.7926 26.9952 17.7926 26.7786C17.7926 26.5813 17.7374 26.4208 17.6272 26.2971C17.517 26.1733 17.3719 26.0727 17.1921 25.9954C17.0123 25.918 16.8179 25.8504 16.6091 25.7923L15.8781 25.5835C15.414 25.4501 15.0465 25.2596 14.7758 25.012C14.5051 24.7645 14.3697 24.4406 14.3697 24.0403C14.3697 23.7077 14.4596 23.4176 14.6395 23.1701C14.8213 22.9206 15.0649 22.7273 15.3705 22.59C15.6779 22.4507 16.0212 22.3811 16.4002 22.3811C16.7831 22.3811 17.1235 22.4498 17.4213 22.5871C17.7191 22.7224 17.955 22.9081 18.129 23.144C18.305 23.3799 18.3978 23.6477 18.4075 23.9475H17.7113Z" fill="white"/>
</g>
<defs>
<clipPath id="clip0_1309_61022">
<rect width="31.9999" height="31.9999" fill="white"/>
</clipPath>
</defs>
</svg>
