<svg width="32" height="32" viewBox="0 0 32 32" fill="none" xmlns="http://www.w3.org/2000/svg">
<g clip-path="url(#clip0_1309_61020)">
<path fill-rule="evenodd" clip-rule="evenodd" d="M4.84254 -0.0490723C3.44104 -0.0490723 2.30554 1.08693 2.30554 2.48792V29.4084C2.30554 30.8099 3.44104 31.9454 4.84254 31.9454H27.7295C29.13 31.9454 30.2665 30.8099 30.2665 29.4084V10.1059L20.8155 -0.0490723H4.84254Z" fill="#21A366"/>
<path opacity="0.5" fill-rule="evenodd" clip-rule="evenodd" d="M20.8195 -0.0493164V7.23117C20.8195 8.05917 21.3715 10.1272 23.8715 10.1272H30.271L20.8195 -0.0493164Z" fill="#DCFFEF"/>
<path d="M4.97503 22.4623L6.50661 24.9337H6.55302L8.08459 22.4623H8.9316L7.06354 25.4327L8.9316 28.403H8.08459L6.55302 25.978H6.50661L4.97503 28.403H4.12802L6.04249 25.4327L4.12802 22.4623H4.97503Z" fill="white"/>
<path d="M9.86781 28.403V22.4623H10.5872V27.7648H13.3487V28.403H9.86781Z" fill="white"/>
<path d="M14.4625 22.4623H15.3211L17.34 27.3935H17.4097L19.4286 22.4623H20.2872V28.403H19.6142V23.8895H19.5562L17.6997 28.403H17.05L15.1935 23.8895H15.1355V28.403H14.4625V22.4623Z" fill="white"/>
<path d="M24.9783 23.9475C24.9435 23.6535 24.8024 23.4254 24.5548 23.2629C24.3073 23.1005 24.0037 23.0193 23.644 23.0193C23.381 23.0193 23.1509 23.0618 22.9536 23.1469C22.7583 23.232 22.6056 23.349 22.4953 23.4979C22.387 23.6468 22.3329 23.816 22.3329 24.0055C22.3329 24.1641 22.3706 24.3004 22.446 24.4145C22.5234 24.5267 22.622 24.6205 22.7419 24.6959C22.8618 24.7694 22.9875 24.8303 23.119 24.8786C23.2505 24.925 23.3713 24.9627 23.4816 24.9917L24.0849 25.1542C24.2396 25.1948 24.4117 25.2509 24.6012 25.3224C24.7927 25.394 24.9754 25.4916 25.1495 25.6154C25.3255 25.7372 25.4705 25.8939 25.5846 26.0853C25.6987 26.2768 25.7557 26.5117 25.7557 26.7902C25.7557 27.1112 25.6716 27.4013 25.5034 27.6604C25.3371 27.9195 25.0934 28.1255 24.7724 28.2783C24.4533 28.431 24.0656 28.5074 23.6092 28.5074C23.1838 28.5074 22.8154 28.4388 22.504 28.3015C22.1946 28.1642 21.951 27.9727 21.7731 27.7271C21.5971 27.4815 21.4975 27.1963 21.4743 26.8714H22.2169C22.2362 27.0957 22.3116 27.2814 22.4431 27.4283C22.5766 27.5734 22.7448 27.6817 22.9478 27.7532C23.1528 27.8228 23.3733 27.8576 23.6092 27.8576C23.8838 27.8576 24.1304 27.8132 24.3489 27.7242C24.5674 27.6333 24.7405 27.5076 24.8681 27.3471C24.9957 27.1847 25.0596 26.9952 25.0596 26.7786C25.0596 26.5813 25.0044 26.4208 24.8942 26.2971C24.784 26.1733 24.639 26.0727 24.4591 25.9954C24.2793 25.918 24.0849 25.8504 23.8761 25.7923L23.1451 25.5835C22.681 25.4501 22.3136 25.2596 22.0428 25.012C21.7721 24.7645 21.6367 24.4406 21.6367 24.0403C21.6367 23.7077 21.7266 23.4176 21.9065 23.1701C22.0883 22.9206 22.3319 22.7273 22.6375 22.59C22.9449 22.4507 23.2882 22.3811 23.6672 22.3811C24.0501 22.3811 24.3905 22.4498 24.6883 22.5871C24.9861 22.7224 25.222 22.9081 25.396 23.144C25.572 23.3799 25.6648 23.6477 25.6745 23.9475H24.9783Z" fill="white"/>
</g>
<defs>
<clipPath id="clip0_1309_61020">
<rect width="31.9999" height="31.9999" fill="white"/>
</clipPath>
</defs>
</svg>
