<svg width="32" height="32" viewBox="0 0 32 32" fill="none" xmlns="http://www.w3.org/2000/svg">
<g clip-path="url(#clip0_1309_61017)">
<path fill-rule="evenodd" clip-rule="evenodd" d="M4.98906 0.0544434C3.58856 0.0544434 2.45306 1.19044 2.45306 2.59144V29.5119C2.45306 30.9129 3.58906 32.0484 4.98906 32.0484H27.8765C29.2775 32.0484 30.414 30.9129 30.414 29.5119V10.2089L20.962 0.0544434H4.98906Z" fill="#4E74B7"/>
<path opacity="0.5" fill-rule="evenodd" clip-rule="evenodd" d="M20.9497 0.0493164V7.3298C20.9497 8.1578 21.5017 10.2253 24.0017 10.2253H30.4012L20.9497 0.0493164Z" fill="white"/>
<path d="M4.42974 28.6172V28.095L7.63212 23.3147H4.39493V22.6765H8.49073V23.1986L5.28835 27.979H8.52554V28.6172H4.42974Z" fill="white"/>
<path d="M10.4516 22.6765V28.6172H9.73224V22.6765H10.4516Z" fill="white"/>
<path d="M11.894 28.6172V22.6765H13.9013C14.3673 22.6765 14.7483 22.7606 15.0442 22.9289C15.342 23.0952 15.5624 23.3205 15.7055 23.6047C15.8486 23.889 15.9202 24.2062 15.9202 24.5562C15.9202 24.9062 15.8486 25.2243 15.7055 25.5105C15.5644 25.7967 15.3458 26.0249 15.05 26.1951C14.7541 26.3633 14.3751 26.4474 13.9129 26.4474H12.4741V25.8093H13.8897C14.2088 25.8093 14.465 25.7542 14.6584 25.6439C14.8518 25.5337 14.992 25.3848 15.079 25.1972C15.1679 25.0077 15.2124 24.794 15.2124 24.5562C15.2124 24.3183 15.1679 24.1056 15.079 23.918C14.992 23.7304 14.8508 23.5835 14.6555 23.4771C14.4602 23.3688 14.201 23.3147 13.8781 23.3147H12.6134V28.6172H11.894Z" fill="white"/>
</g>
<defs>
<clipPath id="clip0_1309_61017">
<rect width="31.9999" height="31.9999" fill="white"/>
</clipPath>
</defs>
</svg>
