<svg width="24" height="24" viewBox="0 0 24 24" fill="none" xmlns="http://www.w3.org/2000/svg">
<path d="M9.59377 3.94014C9.68418 3.39768 10.1535 3.00009 10.7035 3.00009H13.2974C13.8474 3.00009 14.3167 3.39768 14.4071 3.94014L14.6206 5.22119C14.683 5.59523 14.9329 5.9068 15.2647 6.09045C15.3389 6.13151 15.4122 6.17393 15.4846 6.21766C15.8097 6.41393 16.205 6.47495 16.5606 6.34175L17.7774 5.88587C18.2924 5.69293 18.8714 5.9006 19.1464 6.37687L20.4434 8.6233C20.7183 9.09957 20.6087 9.70482 20.1841 10.0544L19.1798 10.8812C18.8873 11.122 18.7423 11.4938 18.7493 11.8726C18.7501 11.915 18.7504 11.9575 18.7504 12.0001C18.7504 12.0427 18.7501 12.0852 18.7493 12.1275C18.7423 12.5064 18.8873 12.8782 19.1798 13.119L20.1841 13.9458C20.6087 14.2953 20.7183 14.9006 20.4434 15.3769L19.1464 17.6233C18.8714 18.0996 18.2924 18.3072 17.7774 18.1143L16.5606 17.6584C16.205 17.5252 15.8097 17.5862 15.4847 17.7825C15.4122 17.8263 15.3389 17.8687 15.2647 17.9097C14.9329 18.0934 14.683 18.4049 14.6206 18.779L14.4071 20.06C14.3167 20.6025 13.8474 21.0001 13.2974 21.0001H10.7035C10.1535 21.0001 9.68418 20.6025 9.59377 20.06L9.38026 18.779C9.31792 18.4049 9.06795 18.0934 8.73618 17.9097C8.66201 17.8687 8.58869 17.8263 8.51626 17.7825C8.19122 17.5863 7.79589 17.5252 7.44033 17.6584L6.22346 18.1143C5.70847 18.3072 5.12948 18.0996 4.8545 17.6233L3.55752 15.3769C3.28255 14.9006 3.3922 14.2954 3.81678 13.9458L4.82114 13.119C5.11364 12.8782 5.25864 12.5064 5.25163 12.1276C5.25084 12.0852 5.25045 12.0427 5.25045 12.0001C5.25045 11.9575 5.25084 11.915 5.25163 11.8726C5.25864 11.4938 5.11364 11.122 4.82114 10.8812L3.81678 10.0544C3.3922 9.70484 3.28255 9.09958 3.55752 8.62332L4.8545 6.37688C5.12948 5.90061 5.70847 5.69295 6.22346 5.88588L7.44031 6.34176C7.79588 6.47496 8.19121 6.41394 8.51624 6.21767C8.58868 6.17393 8.662 6.13151 8.73618 6.09045C9.06795 5.9068 9.31792 5.59523 9.38026 5.22119L9.59377 3.94014Z" stroke="#262626" stroke-width="1.5" stroke-linecap="round" stroke-linejoin="round"/>
<path d="M15.0002 12C15.0002 13.6569 13.6571 15 12.0002 15C10.3434 15 9.00022 13.6569 9.00022 12C9.00022 10.3432 10.3434 9.00001 12.0002 9.00001C13.6571 9.00001 15.0002 10.3432 15.0002 12Z" stroke="#262626" stroke-width="1.5" stroke-linecap="round" stroke-linejoin="round"/>
</svg>
