<svg width="18" height="18" viewBox="0 0 18 18" fill="none" xmlns="http://www.w3.org/2000/svg">
<g clip-path="url(#clip0_1219_57751)">
<path d="M11.5943 4.11026L13.906 6.42432L14.7019 5.62923L12.3902 3.31517L11.5943 4.11026ZM6.95197 14.1742L3.86446 11.0836L3.06855 11.8787L6.15607 14.9694L6.95197 14.1742ZM12.9776 10.7192L11.5398 11.2594L11.9355 12.3126L13.3733 11.7724L12.9776 10.7192ZM6.77755 6.4799L7.2984 5.05835L6.24207 4.67132L5.72122 6.09287L6.77755 6.4799ZM4.53352 8.54744C5.06712 8.40029 5.47313 8.29694 5.80515 8.05791L5.14784 7.14491C5.01814 7.23829 4.84975 7.29327 4.23452 7.46289L4.53352 8.54744ZM5.72122 6.09287C5.50151 6.69255 5.43277 6.85621 5.32899 6.97799L6.18523 7.70766C6.45054 7.39637 6.58696 7.00009 6.77755 6.4799L5.72122 6.09287ZM5.80515 8.05791C5.94547 7.95689 6.07308 7.83929 6.18523 7.70766L5.32899 6.97799C5.27551 7.04074 5.2147 7.09678 5.14784 7.14491L5.80515 8.05791ZM11.5398 11.2594C11.0229 11.4536 10.629 11.5929 10.3203 11.8602L11.0568 12.7107C11.1774 12.6062 11.3397 12.5365 11.9355 12.3126L11.5398 11.2594ZM10.578 13.8001C10.747 13.186 10.8018 13.0177 10.8949 12.8879L9.98089 12.2321C9.74291 12.5638 9.63994 12.969 9.49331 13.5017L10.578 13.8001ZM10.3203 11.8602C10.193 11.9704 10.0791 12.0952 9.98089 12.2321L10.8949 12.8879C10.9418 12.8227 10.9961 12.7632 11.0568 12.7107L10.3203 11.8602ZM3.86446 11.0836C3.37986 10.5985 3.05123 10.2683 2.83799 10.0004C2.624 9.73154 2.60191 9.61514 2.60158 9.56294L1.4766 9.57006C1.47936 10.0067 1.6962 10.3723 1.95776 10.701C2.22007 11.0305 2.60361 11.4133 3.06855 11.8787L3.86446 11.0836ZM4.23452 7.46289C3.60061 7.63769 3.07821 7.78079 2.68747 7.93769C2.2978 8.09406 1.92862 8.30496 1.71064 8.68341L2.68552 9.24486C2.71149 9.19979 2.78794 9.10956 3.10659 8.98169C3.42417 8.85419 3.87277 8.72961 4.53352 8.54744L4.23452 7.46289ZM2.60158 9.56294C2.60087 9.45126 2.62986 9.34154 2.68552 9.24486L1.71064 8.68341C1.5554 8.95296 1.47463 9.25896 1.4766 9.57006L2.60158 9.56294ZM6.15607 14.9694C6.62398 15.4378 7.00872 15.8241 7.34009 16.088C7.67051 16.3512 8.03869 16.5692 8.47834 16.5699L8.47999 15.4449C8.42794 15.4448 8.31131 15.4234 8.04101 15.208C7.77161 14.9935 7.43967 14.6625 6.95197 14.1742L6.15607 14.9694ZM9.49331 13.5017C9.31016 14.1673 9.18491 14.6194 9.05659 14.9392C8.92774 15.2601 8.83683 15.3366 8.79138 15.3625L9.34901 16.3396C9.73076 16.1218 9.94316 15.7504 10.1006 15.3582C10.2585 14.965 10.4023 14.4388 10.578 13.8001L9.49331 13.5017ZM8.47834 16.5699C8.78366 16.5703 9.08381 16.491 9.34901 16.3396L8.79138 15.3625C8.69651 15.4167 8.58919 15.445 8.47999 15.4449L8.47834 16.5699ZM13.906 6.42432C14.7036 7.22273 15.2554 7.77719 15.594 8.23416C15.9267 8.68311 15.965 8.92199 15.9243 9.10986L17.0239 9.34761C17.1663 8.68911 16.9039 8.11221 16.4979 7.56434C16.0979 7.0245 15.4731 6.40121 14.7019 5.62923L13.906 6.42432ZM13.3733 11.7724C14.3943 11.3887 15.2208 11.0798 15.808 10.7539C16.4041 10.423 16.8815 10.0063 17.0239 9.34761L15.9243 9.10986C15.8837 9.29766 15.7503 9.49919 15.2621 9.77016C14.7651 10.046 14.0337 10.3225 12.9776 10.7192L13.3733 11.7724ZM12.3902 3.31517C11.6133 2.53746 10.9863 1.90771 10.4436 1.50485C9.89336 1.0963 9.31331 0.831903 8.65196 0.977815L8.89436 2.0764C9.08164 2.03508 9.32104 2.07254 9.77306 2.40813C10.2327 2.74941 10.791 3.30607 11.5943 4.11026L12.3902 3.31517ZM7.2984 5.05835C7.68964 3.99062 7.96234 3.25059 8.23616 2.74743C8.50541 2.2526 8.70701 2.11774 8.89436 2.0764L8.65196 0.977815C7.99076 1.12371 7.57563 1.60755 7.24796 2.2097C6.92483 2.80351 6.6204 3.63872 6.24207 4.67132L7.2984 5.05835Z" fill="#374151"/>
<path d="M1.10205 16.1024C0.882493 16.3221 0.882673 16.6783 1.10245 16.8979C1.32223 17.1174 1.67839 17.1173 1.89795 16.8975L1.10205 16.1024ZM5.38787 13.404C5.60743 13.1842 5.60725 12.828 5.38747 12.6085C5.16768 12.389 4.81153 12.3891 4.59197 12.6089L5.38787 13.404ZM1.89795 16.8975L5.38787 13.404L4.59197 12.6089L1.10205 16.1024L1.89795 16.8975Z" fill="#374151"/>
</g>
<defs>
<clipPath id="clip0_1219_57751">
<rect width="18" height="18" fill="white"/>
</clipPath>
</defs>
</svg>
