<svg width="32" height="32" viewBox="0 0 32 32" fill="none" xmlns="http://www.w3.org/2000/svg">
<g clip-path="url(#clip0_1309_61008)">
<path fill-rule="evenodd" clip-rule="evenodd" d="M4.55475 0.00105748C3.88499 -0.00429033 3.24034 0.255639 2.76161 0.724064C2.28288 1.19249 2.00898 1.83134 1.99976 2.50105V29.441C1.99643 29.7777 2.0602 30.1117 2.18736 30.4234C2.31452 30.7352 2.50251 31.0185 2.74037 31.2568C2.97822 31.4952 3.26116 31.6837 3.57269 31.8115C3.88421 31.9392 4.21806 32.0037 4.55475 32.001H27.4447C27.7814 32.0037 28.1153 31.9392 28.4268 31.8115C28.7383 31.6837 29.0212 31.4952 29.2591 31.2568C29.497 31.0185 29.6849 30.7352 29.8121 30.4234C29.9393 30.1117 30.003 29.7777 29.9997 29.441V10.141L20.5297 0.00105748H4.55475Z" fill="#107CAD"/>
<path opacity="0.5" fill-rule="evenodd" clip-rule="evenodd" d="M20.5352 0.000976562V7.28096C20.5339 7.6752 20.6132 8.06553 20.7684 8.42796C20.9235 8.79038 21.1512 9.11723 21.4373 9.38841C21.7235 9.65958 22.0621 9.86934 22.4323 10.0048C22.8026 10.1402 23.1966 10.1985 23.5902 10.176H30.0002L20.5352 0.000976562Z" fill="#90D0FE"/>
<path d="M6.41659 28.4345H4.58334V22.4938H6.49781C7.07409 22.4938 7.56721 22.6127 7.97718 22.8506C8.38714 23.0865 8.70139 23.4259 8.91991 23.8688C9.13843 24.3097 9.24769 24.8376 9.24769 25.4525C9.24769 26.0714 9.13746 26.6041 8.91701 27.0508C8.69655 27.4956 8.37554 27.8379 7.95397 28.0777C7.5324 28.3155 7.01994 28.4345 6.41659 28.4345ZM5.30272 27.7963H6.37018C6.86137 27.7963 7.26844 27.7016 7.59138 27.5121C7.91433 27.3225 8.15509 27.0528 8.31366 26.7028C8.47223 26.3527 8.55152 25.936 8.55152 25.4525C8.55152 24.973 8.4732 24.5601 8.31656 24.2139C8.15992 23.8659 7.92593 23.599 7.61459 23.4133C7.30324 23.2258 6.91552 23.132 6.4514 23.132H5.30272V27.7963Z" fill="white"/>
<path d="M15.4668 25.4641C15.4668 26.0907 15.3537 26.6322 15.1274 27.0885C14.9012 27.5449 14.5908 27.8969 14.1963 28.1444C13.8018 28.3919 13.3512 28.5157 12.8446 28.5157C12.3379 28.5157 11.8873 28.3919 11.4928 28.1444C11.0983 27.8969 10.788 27.5449 10.5617 27.0885C10.3355 26.6322 10.2223 26.0907 10.2223 25.4641C10.2223 24.8376 10.3355 24.2961 10.5617 23.8397C10.788 23.3834 11.0983 23.0314 11.4928 22.7839C11.8873 22.5364 12.3379 22.4126 12.8446 22.4126C13.3512 22.4126 13.8018 22.5364 14.1963 22.7839C14.5908 23.0314 14.9012 23.3834 15.1274 23.8397C15.3537 24.2961 15.4668 24.8376 15.4668 25.4641ZM14.7706 25.4641C14.7706 24.9498 14.6846 24.5156 14.5125 24.1617C14.3423 23.8078 14.1112 23.54 13.8192 23.3582C13.5291 23.1765 13.2043 23.0856 12.8446 23.0856C12.4849 23.0856 12.159 23.1765 11.867 23.3582C11.577 23.54 11.3459 23.8078 11.1738 24.1617C11.0036 24.5156 10.9185 24.9498 10.9185 25.4641C10.9185 25.9785 11.0036 26.4127 11.1738 26.7666C11.3459 27.1205 11.577 27.3883 11.867 27.5701C12.159 27.7518 12.4849 27.8427 12.8446 27.8427C13.2043 27.8427 13.5291 27.7518 13.8192 27.5701C14.1112 27.3883 14.3423 27.1205 14.5125 26.7666C14.6846 26.4127 14.7706 25.9785 14.7706 25.4641Z" fill="white"/>
<path d="M21.4568 24.3503H20.7374C20.6949 24.1434 20.6204 23.9616 20.5141 23.8049C20.4096 23.6483 20.282 23.5168 20.1312 23.4104C19.9823 23.3021 19.8169 23.2209 19.6351 23.1668C19.4534 23.1126 19.2638 23.0856 19.0666 23.0856C18.7069 23.0856 18.3811 23.1765 18.0891 23.3582C17.799 23.54 17.5679 23.8078 17.3958 24.1617C17.2256 24.5156 17.1405 24.9498 17.1405 25.4641C17.1405 25.9785 17.2256 26.4127 17.3958 26.7666C17.5679 27.1205 17.799 27.3883 18.0891 27.5701C18.3811 27.7518 18.7069 27.8427 19.0666 27.8427C19.2638 27.8427 19.4534 27.8157 19.6351 27.7615C19.8169 27.7074 19.9823 27.6271 20.1312 27.5208C20.282 27.4125 20.4096 27.28 20.5141 27.1234C20.6204 26.9648 20.6949 26.783 20.7374 26.578H21.4568C21.4026 26.8816 21.304 27.1533 21.1609 27.3931C21.0178 27.6329 20.8399 27.8369 20.6272 28.0052C20.4145 28.1715 20.1756 28.2981 19.9107 28.3852C19.6477 28.4722 19.3663 28.5157 19.0666 28.5157C18.5599 28.5157 18.1094 28.3919 17.7149 28.1444C17.3204 27.8969 17.01 27.5449 16.7837 27.0885C16.5575 26.6322 16.4444 26.0907 16.4444 25.4641C16.4444 24.8376 16.5575 24.2961 16.7837 23.8397C17.01 23.3834 17.3204 23.0314 17.7149 22.7839C18.1094 22.5364 18.5599 22.4126 19.0666 22.4126C19.3663 22.4126 19.6477 22.4561 19.9107 22.5431C20.1756 22.6302 20.4145 22.7578 20.6272 22.926C20.8399 23.0923 21.0178 23.2954 21.1609 23.5352C21.304 23.773 21.4026 24.0447 21.4568 24.3503Z" fill="white"/>
<path d="M22.9195 22.4938L24.451 24.9652H24.4975L26.029 22.4938H26.876L25.008 25.4641L26.876 28.4345H26.029L24.4975 26.0095H24.451L22.9195 28.4345H22.0725L23.9869 25.4641L22.0725 22.4938H22.9195Z" fill="white"/>
</g>
<defs>
<clipPath id="clip0_1309_61008">
<rect width="31.9999" height="31.9999" fill="white"/>
</clipPath>
</defs>
</svg>
