<svg width="32" height="32" viewBox="0 0 32 32" fill="none" xmlns="http://www.w3.org/2000/svg">
<path d="M18.2837 13.5L17.9952 21M14.0048 21L13.7163 13.5M22.023 10.8255C22.308 10.8685 22.592 10.9146 22.875 10.9636M22.023 10.8255L21.1332 22.3938C21.058 23.3707 20.2434 24.125 19.2637 24.125H12.7363C11.7566 24.125 10.942 23.3707 10.8668 22.3938L9.97696 10.8255M22.023 10.8255C21.0677 10.6812 20.1013 10.5707 19.125 10.4953M9.125 10.9636C9.40798 10.9146 9.69198 10.8685 9.97696 10.8255M9.97696 10.8255C10.9323 10.6812 11.8987 10.5707 12.875 10.4953M19.125 10.4953V9.73182C19.125 8.74902 18.3661 7.92853 17.3838 7.8971C16.9244 7.8824 16.463 7.875 16 7.875C15.537 7.875 15.0756 7.8824 14.6162 7.8971C13.6339 7.92853 12.875 8.74902 12.875 9.73182V10.4953M19.125 10.4953C18.0938 10.4156 17.0516 10.375 16 10.375C14.9484 10.375 13.9062 10.4156 12.875 10.4953" stroke="#374151" stroke-width="1.25" stroke-linecap="round" stroke-linejoin="round"/>
</svg>
