<svg width="32" height="32" viewBox="0 0 32 32" fill="none" xmlns="http://www.w3.org/2000/svg">
<g clip-path="url(#clip0_1309_65001)">
<path d="M14.125 9.75024H10.375C10.0298 9.75024 9.75 10.0301 9.75 10.3752V14.1252C9.75 14.4704 10.0298 14.7502 10.375 14.7502H14.125C14.4702 14.7502 14.75 14.4704 14.75 14.1252V10.3752C14.75 10.0301 14.4702 9.75024 14.125 9.75024Z" stroke="#374151" stroke-width="1.5" stroke-linecap="round" stroke-linejoin="round"/>
<path d="M21.625 9.75024H17.875C17.5298 9.75024 17.25 10.0301 17.25 10.3752V14.1252C17.25 14.4704 17.5298 14.7502 17.875 14.7502H21.625C21.9702 14.7502 22.25 14.4704 22.25 14.1252V10.3752C22.25 10.0301 21.9702 9.75024 21.625 9.75024Z" stroke="#374151" stroke-width="1.5" stroke-linecap="round" stroke-linejoin="round"/>
<path d="M14.125 17.25H10.375C10.0298 17.25 9.75 17.5298 9.75 17.875V21.625C9.75 21.9702 10.0298 22.25 10.375 22.25H14.125C14.4702 22.25 14.75 21.9702 14.75 21.625V17.875C14.75 17.5298 14.4702 17.25 14.125 17.25Z" stroke="#374151" stroke-width="1.5" stroke-linecap="round" stroke-linejoin="round"/>
<path d="M21.625 17.25H17.875C17.5298 17.25 17.25 17.5298 17.25 17.875V21.625C17.25 21.9702 17.5298 22.25 17.875 22.25H21.625C21.9702 22.25 22.25 21.9702 22.25 21.625V17.875C22.25 17.5298 21.9702 17.25 21.625 17.25Z" stroke="#374151" stroke-width="1.5" stroke-linecap="round" stroke-linejoin="round"/>
</g>
<defs>
<clipPath id="clip0_1309_65001">
<rect width="20" height="20" fill="white" transform="translate(6 6)"/>
</clipPath>
</defs>
</svg>
