<svg width="32" height="32" viewBox="0 0 32 32" fill="none" xmlns="http://www.w3.org/2000/svg">
<g clip-path="url(#clip0_1309_61175)">
<path fill-rule="evenodd" clip-rule="evenodd" d="M4.55476 0.00105748C3.885 -0.00429034 3.24034 0.255639 2.76161 0.724065C2.28288 1.19249 2.00898 1.83134 1.99976 2.50106V29.4411C1.99643 29.7778 2.0602 30.1117 2.18736 30.4235C2.31452 30.7353 2.50251 31.0186 2.74037 31.2569C2.97822 31.4952 3.26117 31.6838 3.57269 31.8115C3.88421 31.9393 4.21806 32.0037 4.55476 32.0011H27.4448C27.7815 32.0037 28.1153 31.9393 28.4268 31.8115C28.7384 31.6838 29.0213 31.4952 29.2592 31.2569C29.497 31.0186 29.685 30.7353 29.8122 30.4235C29.9393 30.1117 30.0031 29.7778 29.9998 29.4411V10.1411L20.5298 0.00105748H4.55476Z" fill="#532FF0"/>
<path opacity="0.5" fill-rule="evenodd" clip-rule="evenodd" d="M20.5352 0.000976562V7.28098C20.5339 7.67521 20.6133 8.06555 20.7684 8.42797C20.9235 8.7904 21.1512 9.11725 21.4374 9.38842C21.7235 9.6596 22.0621 9.86935 22.4324 10.0048C22.8026 10.1402 23.1966 10.1985 23.5902 10.176H30.0002L20.5352 0.000976562Z" fill="white"/>
<path d="M8.03629 20.3743L5.16553 22.7666L8.03629 25.1589" stroke="white" stroke-width="0.498767" stroke-linecap="round" stroke-linejoin="round"/>
<path d="M15.6916 20.3743L18.5623 22.7666L15.6916 25.1589" stroke="white" stroke-width="0.498767" stroke-linecap="round" stroke-linejoin="round"/>
<path d="M13.7778 17.5034L9.95013 28.0295" stroke="white" stroke-width="0.498767" stroke-linecap="round" stroke-linejoin="round"/>
</g>
<defs>
<clipPath id="clip0_1309_61175">
<rect width="32" height="32" fill="white"/>
</clipPath>
</defs>
</svg>
