<svg width="32" height="32" viewBox="0 0 32 32" fill="none" xmlns="http://www.w3.org/2000/svg">
<g clip-path="url(#clip0_1309_61012)">
<path fill-rule="evenodd" clip-rule="evenodd" d="M4.66624 0.0368652C3.26474 0.0368652 2.12924 1.17286 2.12924 2.57386V29.4943C2.12924 30.8958 3.26474 32.0313 4.66624 32.0313H27.5532C28.9537 32.0313 30.0902 30.8958 30.0902 29.4943V10.1913L20.6392 0.0368652H4.66624Z" fill="#FC7B24"/>
<path opacity="0.5" fill-rule="evenodd" clip-rule="evenodd" d="M20.6475 0.0490723V7.32956C20.6475 8.15756 21.1995 10.2251 23.6995 10.2251H30.099L20.6475 0.0490723Z" fill="white"/>
<path d="M4.62982 28.4822V22.5415H5.3492V25.187H8.51678V22.5415H9.23615V28.4822H8.51678V25.8251H5.3492V28.4822H4.62982Z" fill="white"/>
<path d="M10.3515 23.1797V22.5415H14.807V23.1797H12.9389V28.4822H12.2195V23.1797H10.3515Z" fill="white"/>
<path d="M15.9172 22.5415H16.7758L18.7947 27.4727H18.8643L20.8832 22.5415H21.7418V28.4822H21.0689V23.9687H21.0109L19.1544 28.4822H18.5047L16.6482 23.9687H16.5902V28.4822H15.9172V22.5415Z" fill="white"/>
<path d="M23.1842 28.4822V22.5415H23.9036V27.844H26.6651V28.4822H23.1842Z" fill="white"/>
</g>
<defs>
<clipPath id="clip0_1309_61012">
<rect width="31.9999" height="31.9999" fill="white"/>
</clipPath>
</defs>
</svg>
