<svg width="32" height="32" viewBox="0 0 32 32" fill="none" xmlns="http://www.w3.org/2000/svg">
<g clip-path="url(#clip0_1309_61010)">
<path fill-rule="evenodd" clip-rule="evenodd" d="M4.55297 -0.121582C3.15198 -0.121582 2.01648 1.01442 2.01648 2.41541V29.3359C2.01648 30.7374 3.15198 31.8729 4.55297 31.8729H27.4399C28.8404 31.8729 29.9769 30.7374 29.9769 29.3359V10.0334L20.5259 -0.121582H4.55297Z" fill="#FED4FF"/>
<path d="M4.9302 26.9359C5.06159 27.7297 5.75122 28.335 6.58222 28.335H16.6296C17.5545 28.335 18.3042 27.5853 18.3042 26.6605V23.4705M4.9302 26.9359C4.91537 26.8463 4.90765 26.7543 4.90765 26.6605V16.613C4.90765 15.6882 5.65738 14.9385 6.58222 14.9385H16.6296C17.5545 14.9385 18.3042 15.6882 18.3042 16.613V23.4705M4.9302 26.9359L8.1292 23.7369C8.69858 23.2387 9.5313 23.1842 10.1608 23.6039L10.5871 23.888C11.1938 24.2925 11.9927 24.2579 12.5621 23.8024L14.7793 22.0285C15.3445 21.5764 16.1317 21.541 16.7325 21.9285C16.799 21.9714 16.8583 22.0246 16.9143 22.0807L18.3042 23.4705M10.7686 19.1249C10.7686 20.0498 10.0189 20.7995 9.09407 20.7995C8.16924 20.7995 7.41951 20.0498 7.41951 19.1249C7.41951 18.2001 8.16924 17.4503 9.09407 17.4503C10.0189 17.4503 10.7686 18.2001 10.7686 19.1249Z" stroke="#810083" stroke-width="0.498766" stroke-linecap="round" stroke-linejoin="round"/>
<path opacity="0.5" fill-rule="evenodd" clip-rule="evenodd" d="M20.5486 -0.123535V7.15695C20.5486 7.98495 21.1006 10.0524 23.6005 10.0524H30L20.5486 -0.123535Z" fill="#810083"/>
</g>
<defs>
<clipPath id="clip0_1309_61010">
<rect width="31.9999" height="31.9999" fill="white"/>
</clipPath>
</defs>
</svg>
