<svg width="32" height="32" viewBox="0 0 32 32" fill="none" xmlns="http://www.w3.org/2000/svg">
<g clip-path="url(#clip0_1309_61015)">
<path fill-rule="evenodd" clip-rule="evenodd" d="M4.77633 0.00708008C3.37534 0.00708008 2.23984 1.14358 2.23984 2.54408V29.4645C2.23984 30.866 3.37534 32.0015 4.77633 32.0015H27.6633C29.0638 32.0015 30.2003 30.866 30.2003 29.4645V10.1621L20.7493 0.00708008H4.77633Z" fill="#E34221"/>
<path opacity="0.5" fill-rule="evenodd" clip-rule="evenodd" d="M20.758 0.0102539V7.29074C20.758 8.11874 21.31 10.1862 23.81 10.1862H30.2095L20.758 0.0102539Z" fill="white"/>
<path d="M5.09998 28.4424V22.5017H7.10727C7.57332 22.5017 7.95428 22.5858 8.25015 22.7541C8.54796 22.9204 8.76841 23.1457 8.91151 23.4299C9.05461 23.7142 9.12616 24.0314 9.12616 24.3814C9.12616 24.7314 9.05461 25.0495 8.91151 25.3357C8.77034 25.6219 8.55182 25.8501 8.25595 26.0203C7.96008 26.1885 7.58105 26.2726 7.11887 26.2726H5.68012V25.6345H7.09567C7.41474 25.6345 7.67097 25.5794 7.86435 25.4691C8.05774 25.3589 8.19794 25.21 8.28496 25.0224C8.37391 24.8329 8.41839 24.6192 8.41839 24.3814C8.41839 24.1435 8.37391 23.9308 8.28496 23.7432C8.19794 23.5556 8.05677 23.4087 7.86145 23.3023C7.66614 23.194 7.40701 23.1399 7.08406 23.1399H5.81935V28.4424H5.09998Z" fill="white"/>
<path d="M10.285 28.4424V22.5017H12.2923C12.7583 22.5017 13.1393 22.5858 13.4352 22.7541C13.733 22.9204 13.9534 23.1457 14.0965 23.4299C14.2396 23.7142 14.3112 24.0314 14.3112 24.3814C14.3112 24.7314 14.2396 25.0495 14.0965 25.3357C13.9554 25.6219 13.7368 25.8501 13.441 26.0203C13.1451 26.1885 12.7661 26.2726 12.3039 26.2726H10.8651V25.6345H12.2807C12.5998 25.6345 12.856 25.5794 13.0494 25.4691C13.2428 25.3589 13.383 25.21 13.47 25.0224C13.5589 24.8329 13.6034 24.6192 13.6034 24.3814C13.6034 24.1435 13.5589 23.9308 13.47 23.7432C13.383 23.5556 13.2418 23.4087 13.0465 23.3023C12.8512 23.194 12.592 23.1399 12.2691 23.1399H11.0044V28.4424H10.285Z" fill="white"/>
<path d="M15.1451 23.1399V22.5017H19.6006V23.1399H17.7326V28.4424H17.0132V23.1399H15.1451Z" fill="white"/>
<path d="M21.059 22.5017L22.5905 24.9731H22.637L24.1685 22.5017H25.0155L23.1475 25.472L25.0155 28.4424H24.1685L22.637 26.0174H22.5905L21.059 28.4424H20.212L22.1264 25.472L20.212 22.5017H21.059Z" fill="white"/>
</g>
<defs>
<clipPath id="clip0_1309_61015">
<rect width="31.9999" height="31.9999" fill="white"/>
</clipPath>
</defs>
</svg>
