<svg width="32" height="32" viewBox="0 0 32 32" fill="none" xmlns="http://www.w3.org/2000/svg">
<g clip-path="url(#clip0_1309_61014)">
<path fill-rule="evenodd" clip-rule="evenodd" d="M4.6633 -0.026123C3.2623 -0.026123 2.1268 1.10988 2.1268 2.51087V29.4313C2.1268 30.8328 3.2623 31.9683 4.6633 31.9683H27.5503C28.9507 31.9683 30.0872 30.8328 30.0872 29.4313V10.1289L20.6363 -0.026123H4.6633Z" fill="#6305D6"/>
<path opacity="0.5" fill-rule="evenodd" clip-rule="evenodd" d="M20.659 -0.0275879V7.2529C20.659 8.0809 21.211 10.1484 23.711 10.1484H30.1105L20.659 -0.0275879Z" fill="#BB84FF"/>
<path d="M4.94958 28.5219V22.5812H6.95688C7.42293 22.5812 7.80389 22.6653 8.09976 22.8336C8.39756 22.9999 8.61802 23.2252 8.76112 23.5094C8.90422 23.7937 8.97577 24.1109 8.97577 24.4609C8.97577 24.8109 8.90422 25.129 8.76112 25.4152C8.61995 25.7014 8.40143 25.9296 8.10556 26.0998C7.80969 26.268 7.43066 26.3521 6.96848 26.3521H5.52973V25.714H6.94527C7.26435 25.714 7.52058 25.6589 7.71396 25.5486C7.90734 25.4384 8.04755 25.2895 8.13457 25.1019C8.22352 24.9124 8.268 24.6987 8.268 24.4609C8.268 24.223 8.22352 24.0103 8.13457 23.8227C8.04755 23.6351 7.90638 23.4882 7.71106 23.3818C7.51575 23.2735 7.25662 23.2194 6.93367 23.2194H5.66896V28.5219H4.94958Z" fill="white"/>
<path d="M13.3834 24.0664C13.3486 23.7724 13.2074 23.5443 12.9599 23.3818C12.7124 23.2194 12.4088 23.1382 12.0491 23.1382C11.7861 23.1382 11.556 23.1807 11.3587 23.2658C11.1634 23.3509 11.0106 23.4679 10.9004 23.6168C10.7921 23.7657 10.738 23.9349 10.738 24.1244C10.738 24.283 10.7757 24.4193 10.8511 24.5334C10.9284 24.6456 11.0271 24.7393 11.147 24.8148C11.2669 24.8883 11.3926 24.9492 11.524 24.9975C11.6555 25.0439 11.7764 25.0816 11.8866 25.1106L12.49 25.2731C12.6447 25.3137 12.8168 25.3698 13.0063 25.4413C13.1978 25.5129 13.3805 25.6105 13.5545 25.7343C13.7305 25.8561 13.8756 26.0128 13.9897 26.2042C14.1037 26.3957 14.1608 26.6306 14.1608 26.9091C14.1608 27.2301 14.0767 27.5202 13.9084 27.7793C13.7421 28.0384 13.4985 28.2444 13.1775 28.3971C12.8584 28.5499 12.4706 28.6263 12.0143 28.6263C11.5888 28.6263 11.2204 28.5577 10.9091 28.4204C10.5997 28.2831 10.356 28.0916 10.1781 27.846C10.0021 27.6004 9.90255 27.3152 9.87935 26.9903H10.6219C10.6413 27.2146 10.7167 27.4003 10.8482 27.5472C10.9816 27.6923 11.1499 27.8006 11.3529 27.8721C11.5579 27.9417 11.7783 27.9765 12.0143 27.9765C12.2889 27.9765 12.5354 27.9321 12.754 27.8431C12.9725 27.7522 13.1455 27.6265 13.2732 27.466C13.4008 27.3036 13.4646 27.1141 13.4646 26.8975C13.4646 26.7002 13.4095 26.5397 13.2993 26.416C13.1891 26.2922 13.044 26.1916 12.8642 26.1143C12.6843 26.0369 12.49 25.9693 12.2811 25.9112L11.5502 25.7024C11.086 25.569 10.7186 25.3785 10.4479 25.1309C10.1772 24.8834 10.0418 24.5595 10.0418 24.1592C10.0418 23.8266 10.1317 23.5365 10.3116 23.289C10.4933 23.0395 10.737 22.8462 11.0425 22.7089C11.35 22.5696 11.6933 22.5 12.0723 22.5C12.4552 22.5 12.7955 22.5687 13.0933 22.706C13.3911 22.8413 13.6271 23.027 13.8011 23.2629C13.9771 23.4988 14.0699 23.7666 14.0796 24.0664H13.3834Z" fill="white"/>
<path d="M17.1768 28.5219H15.3436V22.5812H17.258C17.8343 22.5812 18.3274 22.7001 18.7374 22.938C19.1474 23.1739 19.4616 23.5133 19.6801 23.9562C19.8986 24.3971 20.0079 24.925 20.0079 25.5399C20.0079 26.1588 19.8977 26.6915 19.6772 27.1382C19.4568 27.583 19.1358 27.9253 18.7142 28.1651C18.2926 28.4029 17.7802 28.5219 17.1768 28.5219ZM16.0629 27.8837H17.1304C17.6216 27.8837 18.0287 27.789 18.3516 27.5995C18.6745 27.4099 18.9153 27.1402 19.0739 26.7902C19.2324 26.4401 19.3117 26.0234 19.3117 25.5399C19.3117 25.0604 19.2334 24.6475 19.0768 24.3013C18.9201 23.9533 18.6861 23.6864 18.3748 23.5007C18.0635 23.3132 17.6757 23.2194 17.2116 23.2194H16.0629V27.8837Z" fill="white"/>
</g>
<defs>
<clipPath id="clip0_1309_61014">
<rect width="31.9999" height="31.9999" fill="white"/>
</clipPath>
</defs>
</svg>
