<svg width="32" height="32" viewBox="0 0 32 32" fill="none" xmlns="http://www.w3.org/2000/svg">
<g clip-path="url(#clip0_1309_61018)">
<path fill-rule="evenodd" clip-rule="evenodd" d="M4.84254 -0.0490723C3.44104 -0.0490723 2.30554 1.08693 2.30554 2.48792V29.4084C2.30554 30.8099 3.44104 31.9454 4.84254 31.9454H27.7295C29.13 31.9454 30.2665 30.8099 30.2665 29.4084V10.1059L20.8155 -0.0490723H4.84254Z" fill="#F9CA06"/>
<path opacity="0.5" fill-rule="evenodd" clip-rule="evenodd" d="M20.8195 -0.0493164V7.23117C20.8195 8.05917 21.3715 10.1272 23.8715 10.1272H30.271L20.8195 -0.0493164Z" fill="white"/>
<path d="M4.30206 23.1006V22.4624H8.75756V23.1006H6.8895V28.4031H6.17012V23.1006H4.30206Z" fill="#5B4B06"/>
<path d="M10.2159 22.4624L11.7475 24.9338H11.7939L13.3255 22.4624H14.1725L12.3044 25.4327L14.1725 28.4031H13.3255L11.7939 25.9781H11.7475L10.2159 28.4031H9.36888L11.2834 25.4327L9.36888 22.4624H10.2159Z" fill="#5B4B06"/>
<path d="M14.7838 23.1006V22.4624H19.2393V23.1006H17.3712V28.4031H16.6518V23.1006H14.7838Z" fill="#5B4B06"/>
</g>
<defs>
<clipPath id="clip0_1309_61018">
<rect width="31.9999" height="31.9999" fill="white"/>
</clipPath>
</defs>
</svg>
