<svg width="24" height="24" viewBox="0 0 24 24" fill="none" xmlns="http://www.w3.org/2000/svg">
<path d="M8.97399 15.6754V16.9848C8.97399 17.296 8.76975 17.5823 8.46624 17.6548C8.30781 17.693 8.18946 17.6873 8.18946 17.6873C4.90435 17.9431 2.05254 15.3623 2.04299 12.0047C2.03536 9.47737 3.76095 7.20967 6.1909 6.51485C7.97567 6.00328 9.71462 6.42322 10.9993 7.41964C12.5244 8.60312 15.926 11.8481 17.203 13.2149" stroke="#4B5563" stroke-width="1.5" stroke-miterlimit="10"/>
<path d="M15.5342 6.34511L15.7086 7.07457L15.7099 7.07424L15.5342 6.34511ZM15.811 6.31266L15.7748 7.06178L15.8221 7.06407L15.8692 7.0604L15.811 6.31266ZM21.9575 11.9953L21.2075 11.9974L21.2075 11.9975L21.9575 11.9953ZM17.8096 17.4851L17.6034 16.764L17.6029 16.7641L17.8096 17.4851ZM13.0012 16.5803L12.5414 17.1728L12.5415 17.1729L13.0012 16.5803ZM8.53629 11.5757C8.2535 11.273 7.7789 11.2569 7.47624 11.5397C7.17358 11.8225 7.15748 12.2971 7.44027 12.5998L7.98828 12.0877L8.53629 11.5757ZM15.0265 8.32458H15.7765V7.01511H15.0265H14.2765V8.32458H15.0265ZM15.0265 7.01511H15.7765C15.7765 7.0225 15.7745 7.0299 15.7681 7.03852C15.7605 7.04878 15.741 7.06682 15.7086 7.07457L15.5342 6.34511L15.3599 5.61565C14.6846 5.77704 14.2765 6.39337 14.2765 7.01511H15.0265ZM15.5342 6.34511L15.7099 7.07424C15.7404 7.06689 15.7668 7.06393 15.7827 7.06286C15.7902 7.06235 15.7941 7.06235 15.7933 7.06235C15.793 7.06235 15.7913 7.06236 15.7883 7.06229C15.7868 7.06225 15.7849 7.0622 15.7826 7.06212C15.7815 7.06208 15.7803 7.06203 15.779 7.06197C15.7783 7.06195 15.7777 7.06192 15.777 7.06188C15.7766 7.06187 15.7762 7.06185 15.7759 7.06184C15.7757 7.06183 15.7755 7.06182 15.7753 7.06181C15.7752 7.0618 15.7751 7.0618 15.7751 7.0618C15.7749 7.06179 15.7748 7.06178 15.811 6.31266C15.8473 5.56354 15.8471 5.56353 15.847 5.56352C15.8469 5.56352 15.8468 5.56351 15.8467 5.56351C15.8465 5.5635 15.8463 5.56349 15.8461 5.56348C15.8457 5.56346 15.8453 5.56344 15.8449 5.56342C15.8441 5.56339 15.8432 5.56335 15.8424 5.56331C15.8406 5.56324 15.8387 5.56316 15.8367 5.56309C15.8326 5.56294 15.828 5.5628 15.823 5.56269C15.8129 5.56245 15.8007 5.56231 15.7868 5.56237C15.7589 5.56249 15.7233 5.56345 15.6814 5.56628C15.5985 5.57188 15.4865 5.58515 15.3585 5.61598L15.5342 6.34511ZM15.811 6.31266L15.8692 7.0604C18.7227 6.83822 21.1992 9.07941 21.2075 11.9974L21.9575 11.9953L22.7075 11.9931C22.6967 8.19584 19.4696 5.27553 15.7528 5.56492L15.811 6.31266ZM21.9575 11.9953L21.2075 11.9975C21.2141 14.1849 19.7148 16.1603 17.6034 16.764L17.8096 17.4851L18.0158 18.2062C20.7643 17.4203 22.7161 14.8602 22.7075 11.993L21.9575 11.9953ZM17.8096 17.4851L17.6029 16.7641C16.058 17.207 14.5649 16.844 13.4609 15.9877L13.0012 16.5803L12.5415 17.1729C14.0068 18.3094 15.9916 18.7864 18.0162 18.2061L17.8096 17.4851ZM13.0012 16.5803L13.461 15.9878C11.9572 14.8209 9.77854 12.9052 8.53629 11.5757L7.98828 12.0877L7.44027 12.5998C8.75205 14.0037 10.9949 15.9728 12.5414 17.1728L13.0012 16.5803Z" fill="#4B5563"/>
<path d="M10.9102 12.0724L7.8651 11.9676L7.76349 15.0127L6.51562 13.6775L6.61882 10.634L9.6607 10.7356L10.9102 12.0724Z" fill="#4B5563"/>
<path d="M14.0014 13.0775L17.0461 12.9623L16.9277 9.91787L18.2687 11.1595L18.3854 14.2025L15.3441 14.3207L14.0014 13.0775Z" fill="#4B5563"/>
</svg>
