<svg width="18" height="18" viewBox="0 0 18 18" fill="none" xmlns="http://www.w3.org/2000/svg">
<path d="M7.125 10.3126C7.125 11.0401 7.6875 11.6251 8.3775 11.6251H9.7875C10.3875 11.6251 10.875 11.1151 10.875 10.4776C10.875 9.79506 10.575 9.54756 10.1325 9.39006L7.875 8.60256C7.4325 8.44506 7.13251 8.20506 7.13251 7.51506C7.13251 6.88505 7.62 6.36755 8.22 6.36755H9.63C10.32 6.36755 10.8825 6.95255 10.8825 7.68006" stroke="#374151" stroke-width="1.2" stroke-linecap="round" stroke-linejoin="round"/>
<path d="M9 5.625V12.375" stroke="#374151" stroke-width="1.125" stroke-linecap="round" stroke-linejoin="round"/>
<path d="M16.5 9C16.5 13.14 13.14 16.5 9 16.5C4.86 16.5 1.5 13.14 1.5 9C1.5 4.86 4.86 1.5 9 1.5" stroke="#374151" stroke-width="1.2" stroke-linecap="round" stroke-linejoin="round"/>
<path d="M16.5 4.5V1.5H13.5" stroke="#374151" stroke-width="1.125" stroke-linecap="round" stroke-linejoin="round"/>
<path d="M12.75 5.25L16.5 1.5" stroke="#374151" stroke-width="1.2" stroke-linecap="round" stroke-linejoin="round"/>
</svg>
