<svg width="18" height="18" viewBox="0 0 18 18" fill="none" xmlns="http://www.w3.org/2000/svg">
<path d="M6.9375 9C6.9375 8.68935 7.18934 8.4375 7.5 8.4375H8.4375V7.5C8.4375 7.18934 8.68935 6.9375 9 6.9375C9.31065 6.9375 9.5625 7.18934 9.5625 7.5V8.4375H10.5C10.8107 8.4375 11.0625 8.68935 11.0625 9C11.0625 9.31065 10.8107 9.5625 10.5 9.5625H9.5625V10.5C9.5625 10.8107 9.31065 11.0625 9 11.0625C8.68935 11.0625 8.4375 10.8107 8.4375 10.5V9.5625H7.5C7.18934 9.5625 6.9375 9.31065 6.9375 9Z" fill="#374151"/>
<path fill-rule="evenodd" clip-rule="evenodd" d="M9 0.9375C4.54721 0.9375 0.9375 4.54721 0.9375 9C0.9375 13.4528 4.54721 17.0625 9 17.0625C13.4528 17.0625 17.0625 13.4528 17.0625 9C17.0625 4.54721 13.4528 0.9375 9 0.9375ZM8.4375 2.08498C5.05463 2.35641 2.35641 5.05463 2.08498 8.4375H3.75C4.06066 8.4375 4.3125 8.68935 4.3125 9C4.3125 9.31065 4.06066 9.5625 3.75 9.5625H2.08498C2.35641 12.9454 5.05463 15.6436 8.4375 15.915V14.25C8.4375 13.9393 8.68935 13.6875 9 13.6875C9.31065 13.6875 9.5625 13.9393 9.5625 14.25V15.915C12.9454 15.6436 15.6436 12.9454 15.915 9.5625H14.25C13.9393 9.5625 13.6875 9.31065 13.6875 9C13.6875 8.68935 13.9393 8.4375 14.25 8.4375H15.915C15.6436 5.05463 12.9454 2.35641 9.5625 2.08498V3.75C9.5625 4.06066 9.31065 4.3125 9 4.3125C8.68935 4.3125 8.4375 4.06066 8.4375 3.75V2.08498Z" fill="#374151"/>
</svg>
