<svg width="18" height="18" viewBox="0 0 18 18" fill="none" xmlns="http://www.w3.org/2000/svg">
<path d="M14.625 10.6875V8.71875C14.625 7.32078 13.4917 6.1875 12.0938 6.1875H10.9688C10.5028 6.1875 10.125 5.80974 10.125 5.34375V4.21875C10.125 2.82078 8.99172 1.6875 7.59375 1.6875H6.1875M11.25 10.6875L9 8.4375M9 8.4375L6.75 10.6875M9 8.4375L9 12.9375M7.875 1.6875H4.21875C3.75276 1.6875 3.375 2.06526 3.375 2.53125V15.4688C3.375 15.9347 3.75276 16.3125 4.21875 16.3125H13.7812C14.2472 16.3125 14.625 15.9347 14.625 15.4688V8.4375C14.625 4.70958 11.6029 1.6875 7.875 1.6875Z" stroke="#374151" stroke-width="1.2" stroke-linecap="round" stroke-linejoin="round"/>
</svg>
