<svg width="246" height="32" viewBox="0 0 246 32" fill="none" xmlns="http://www.w3.org/2000/svg">
<path d="M51.0822 6.56132C47.9191 2.1503 40.5356 -0.960796 35.258 0.833076C34.7034 1.02373 33.6375 1.76895 33.6375 2.40157V5.70339C35.0328 4.52481 37.5026 4.28214 37.5026 4.28214C43.1355 3.90084 48.1792 7.04663 49.7737 12.5322C52.8588 23.1741 42.4423 31.8055 32.615 26.2852C30.1798 24.916 26.4967 21.6749 24.3822 19.2224C23.039 17.7925 21.1671 15.7646 19.9104 14.2914L19.0958 13.3988H22.8137C22.7877 13.2255 22.4842 11.1803 21.0977 9.64638H13.4023C13.021 9.64638 12.0938 10.7816 12.0938 11.1803V18.5898C13.4542 19.881 15.2829 20.2796 15.8115 20.3749V16.0246C15.8115 16.0246 15.8721 16.016 15.8981 16.016L17.0333 17.0906C18.2727 18.4511 19.7545 19.933 20.9158 21.1376V21.1202C25.3355 25.5919 30.041 30.9389 36.6792 31.7882C50.6749 33.582 59.055 17.6712 51.091 6.57867L51.0822 6.56132Z" fill="#064771"/>
<path d="M33.7917 7.29871C33.6964 7.28138 33.6444 7.27269 33.6444 7.27269V11.2071C32.4572 10.0025 31.2439 8.73728 29.9873 7.51536C26.5556 4.1876 22.3612 0.833797 17.5169 0.209841C3.5299 -1.57537 -4.90216 14.4049 3.10526 25.4194C6.25104 29.7525 13.8252 33.0715 19.0161 31.1217C19.5448 30.9223 20.55 30.1857 20.55 29.5791V26.572C19.0941 25.6447 17.6382 24.4662 16.685 23.6602V27.7073C11.052 28.0973 5.99972 24.9341 4.41383 19.4572C1.32872 8.8153 11.7453 0.18392 21.5726 5.70419C23.1065 6.56213 25.507 8.49459 27.3269 10.1845C27.3269 10.1845 27.3702 10.2279 27.3962 10.2452C28.7828 11.5364 30.048 12.8623 30.8713 13.9369C30.9579 14.0496 30.9579 14.0843 31.0446 14.2749H26.8069C26.8329 14.4482 27.1362 16.4934 28.5228 18.0273H36.2182C36.5995 18.0273 37.5268 16.892 37.5268 16.4934V9.08397C36.1662 7.79273 34.3377 7.39404 33.8091 7.29871H33.7917Z" fill="#064771"/>
<path d="M74.6296 20.6801L82.1169 3.10547H86.3721L74.8289 28.8956H74.3869L62.8438 3.10547H67.0121L74.6209 20.6801H74.6296Z" fill="#064771"/>
<path d="M88.6757 20.5144C88.6757 23.7122 91.0242 25.3327 93.936 25.3327C96.2845 25.3327 97.5844 24.3188 98.3124 23.7121L100.176 26.468C97.9917 28.0106 96.2499 28.4958 93.936 28.4958C88.3464 28.4958 85.0273 25.0988 85.0273 19.7518C85.0273 14.4049 88.5111 11.0078 93.1301 11.0078C97.3851 11.0078 100.739 13.8849 100.739 18.8246C100.739 19.5959 100.661 20.5231 100.661 20.5231H88.6757V20.5144ZM88.8837 17.6373H97.3851C97.1425 15.2109 95.3573 13.9889 93.2168 13.9889C91.2322 13.9889 89.5337 15.2022 88.8837 17.6373Z" fill="#064771"/>
<path d="M116.098 28.2104V19.4231C116.098 15.818 115.128 14.1194 112.45 14.1194C109.772 14.1194 108.039 16.5459 108.039 19.6224V28.2104H104.391V11.2856H108.039V13.7554C109.053 12.0569 110.951 11.043 113.057 11.043C117.875 11.043 119.816 14.0761 119.816 19.3884V28.2191H116.09L116.098 28.2104Z" fill="#064771"/>
<path d="M131.888 28.4091H130.025C125.813 28.4091 124.4 26.4247 124.4 21.849V14.3181H121.445L122.251 11.285H124.4V7.88802L128.084 7.08203V11.2937H132.295V14.3268H128.084V21.9356C128.084 25.0901 128.855 25.584 132.616 25.2981L131.888 28.4178V28.4091Z" fill="#064771"/>
<path d="M139.176 11.2852V20.1159C139.176 23.721 139.826 25.3762 142.703 25.3762C145.58 25.3762 146.992 22.9497 146.992 19.8732V11.2852H150.641V28.21H146.992V25.7402C145.978 27.4387 144.358 28.4526 142.009 28.4526C137.234 28.4526 135.449 25.4541 135.449 20.1505V11.2852H139.176Z" fill="#064771"/>
<path d="M163.111 14.3191C159.263 14.3191 158.734 17.3176 158.734 20.8793V28.2108H155.086V11.2859H158.734V13.8338C159.298 12.0486 161.126 11 163.024 11C163.388 11 163.631 10.9999 163.995 11.0433C163.752 12.2218 163.674 13.1491 163.388 14.3191H163.102H163.111Z" fill="#064771"/>
<path d="M213.124 27.9178C208.575 27.9178 204.883 25.0059 204.883 19.8583C204.883 14.7107 208.575 11.7988 213.124 11.7988C217.674 11.7988 221.331 14.7454 221.331 19.893C221.331 25.0406 217.709 27.9178 213.124 27.9178ZM213.081 15.1526C210.845 15.1526 208.939 16.8685 208.939 19.8496C208.939 22.8308 210.845 24.5467 213.081 24.5467C215.43 24.5467 217.223 22.9088 217.223 19.8843C217.223 16.8599 215.43 15.144 213.081 15.144V15.1526Z" fill="#064771"/>
<path d="M228.481 20.5241L232.364 11.832H233.074L236.991 20.5241L240.614 12.0573H245.129L237.295 27.9162H236.627L232.745 19.1115L228.863 27.9162H228.152L220.352 12.0573H224.833L228.49 20.5241H228.481Z" fill="#064771"/>
<path d="M199.203 10.2365V27.6552H203.302V8.39062L199.203 10.2365Z" fill="#064771"/>
<path d="M198.384 8.13992V4.51758H185.438V17.8892V17.9845V21.8843V22.5949V27.6559H190.064V16.8667H195.845V13.2182H190.064V8.13992H198.384Z" fill="#064771"/>
<path d="M173.283 25.463C172.365 25.3763 171.576 25.0991 170.961 24.7871C171.29 24.9691 171.672 25.1424 172.114 25.2724C172.625 25.4283 173.101 25.489 173.543 25.515C173.543 25.515 173.543 25.515 173.561 25.515C173.673 25.515 173.829 25.515 173.985 25.489C173.751 25.489 173.517 25.489 173.275 25.4717L173.283 25.463Z" fill="#064771"/>
<path d="M170.961 24.7867C170.744 24.6827 170.545 24.5527 170.354 24.4141H170.328C170.51 24.5354 170.727 24.6654 170.961 24.7867Z" fill="#064771"/>
<path d="M173.55 25.5154C173.55 25.5154 173.55 25.5154 173.567 25.5154C173.628 25.5154 173.697 25.5154 173.775 25.5154C173.255 25.5154 172.796 25.446 172.406 25.3594C172.805 25.4547 173.195 25.5067 173.55 25.5241V25.5154Z" fill="#064771"/>
<path d="M172.409 25.3514C172.314 25.3254 172.219 25.3081 172.115 25.2735C171.976 25.2301 171.837 25.1868 171.707 25.1348H171.664C171.863 25.2128 172.115 25.2821 172.401 25.3514H172.409Z" fill="#064771"/>
<path d="M182.674 19.3359C182.648 19.3532 182.622 19.3705 182.588 19.3878C181.99 19.8038 181.504 20.2545 181.106 20.6705C180.707 21.0865 180.404 21.4764 180.178 21.797C179.901 22.239 179.286 23.123 178.229 23.9029C178.229 23.9029 178.185 23.9288 178.168 23.9462C177.804 24.2062 177.397 24.4575 176.929 24.6655C176.703 24.7869 176.504 24.8908 176.261 24.9948C175.759 25.2115 174.892 25.5061 173.774 25.5061C173.696 25.5061 173.627 25.5061 173.566 25.5061C173.566 25.5061 173.558 25.5061 173.549 25.5061C173.194 25.4888 172.812 25.4367 172.405 25.3414C172.119 25.2721 171.868 25.2027 171.668 25.1247H171.712C171.434 25.0208 171.192 24.8995 170.966 24.7782C170.733 24.6569 170.516 24.5355 170.334 24.4142H170.36C169.242 23.6169 168.531 22.343 168.531 20.5837H178.099C178.099 20.5837 178.107 20.5664 178.116 20.5664C178.723 19.6825 179.685 18.4606 180.56 18.14C180.239 13.6596 177.015 11.0684 172.986 11.0684C168.367 11.0684 164.883 14.5522 164.883 19.8125C164.883 25.0727 168.202 28.5566 173.792 28.5566C176.097 28.5566 177.839 28.0712 180.031 26.5286C180.152 26.4333 180.274 26.3467 180.404 26.2514C180.568 26.1214 180.742 25.9827 180.915 25.8354C181.314 25.4888 181.643 25.1421 181.929 24.8128C182.128 24.5788 182.319 24.3535 182.475 24.1455C182.718 23.7382 183.229 23.0016 184.148 22.4296C184.624 22.135 185.083 21.9703 185.447 21.8663V17.9666C184.711 18.1919 183.714 18.5992 182.683 19.3099L182.674 19.3359ZM173.055 14.0755C175.204 14.0755 176.981 15.2889 177.223 17.724H168.722C169.372 15.2975 171.07 14.0755 173.055 14.0755Z" fill="#064771"/>
</svg>
