<svg width="32" height="32" viewBox="0 0 32 32" fill="none" xmlns="http://www.w3.org/2000/svg">
<path d="M16 10.0098H28.8" stroke="black" stroke-width="2" stroke-linecap="round" stroke-linejoin="round"/>
<path d="M3.19995 10.0098H5.75995" stroke="black" stroke-width="2" stroke-linecap="round" stroke-linejoin="round"/>
<path d="M26.24 21.5298H28.8" stroke="black" stroke-width="2" stroke-linecap="round" stroke-linejoin="round"/>
<path d="M3.19995 21.5298H16" stroke="black" stroke-width="2" stroke-linecap="round" stroke-linejoin="round"/>
<path d="M10.88 15.1296C13.7077 15.1296 16 12.8373 16 10.0096C16 7.18195 13.7077 4.88965 10.88 4.88965C8.05231 4.88965 5.76001 7.18195 5.76001 10.0096C5.76001 12.8373 8.05231 15.1296 10.88 15.1296Z" stroke="black" stroke-width="2" stroke-linecap="round" stroke-linejoin="round"/>
<path d="M21.12 26.6497C23.9476 26.6497 26.24 24.3573 26.24 21.5297C26.24 18.702 23.9476 16.4097 21.12 16.4097C18.2924 16.4097 16 18.702 16 21.5297C16 24.3573 18.2924 26.6497 21.12 26.6497Z" stroke="black" stroke-width="2" stroke-linecap="round" stroke-linejoin="round"/>
</svg>
