<svg width="31" height="31" viewBox="0 0 31 31" fill="none" xmlns="http://www.w3.org/2000/svg">
<path d="M23.0397 11.583C23.0399 11.5621 23.04 11.5411 23.04 11.5201C23.04 7.27854 19.6015 3.84009 15.36 3.84009C11.1184 3.84009 7.67999 7.27854 7.67999 11.5201L7.67973 12.4801C7.67973 15.4441 6.56034 18.1467 4.72124 20.1881C6.93938 21.0069 9.27798 21.5771 11.7032 21.8647C12.9022 22.0069 14.1224 22.0801 15.3597 22.0801C16.5972 22.0801 17.8176 22.0069 19.0168 21.8647C21.4418 21.577 23.7802 21.0069 25.9982 20.1881C24.1591 18.1467 23.0397 15.4441 23.0397 12.4801V11.583Z" fill="#CBE1EF"/>
<path d="M19.0168 21.8647C21.4418 21.577 23.7802 21.0069 25.9982 20.1881C24.1591 18.1467 23.0397 15.4441 23.0397 12.4801V11.583C23.0399 11.5621 23.04 11.5411 23.04 11.5201C23.04 7.27854 19.6015 3.84009 15.36 3.84009C11.1184 3.84009 7.67999 7.27854 7.67999 11.5201L7.67973 12.4801C7.67973 15.4441 6.56034 18.1467 4.72124 20.1881C6.93938 21.0069 9.27798 21.5771 11.7032 21.8647M19.0168 21.8647C17.8176 22.0069 16.5972 22.0801 15.3597 22.0801C14.1224 22.0801 12.9022 22.0069 11.7032 21.8647M19.0168 21.8647C19.1357 22.2351 19.2 22.6301 19.2 23.0401C19.2 25.1609 17.4808 26.8801 15.36 26.8801C13.2392 26.8801 11.52 25.1609 11.52 23.0401C11.52 22.6301 11.5842 22.2352 11.7032 21.8647M3.99927 9.60009C4.36699 7.40827 5.35363 5.42631 6.77334 3.84009M23.9466 3.84009C25.3663 5.42631 26.353 7.40827 26.7207 9.60009" stroke="#064771" stroke-width="2" stroke-linecap="round" stroke-linejoin="round"/>
</svg>
