<svg width="31" height="31" viewBox="0 0 31 31" fill="none" xmlns="http://www.w3.org/2000/svg">
<path d="M19.0168 21.8647C21.4419 21.577 23.7803 21.0069 25.9983 20.1881C24.1592 18.1467 23.0398 15.4441 23.0398 12.4801V11.583C23.04 11.5621 23.0401 11.5411 23.0401 11.5201C23.0401 7.27854 19.6016 3.84009 15.3601 3.84009C11.1185 3.84009 7.68006 7.27854 7.68006 11.5201L7.67981 12.4801C7.67981 15.4441 6.56041 18.1467 4.72131 20.1881C6.93946 21.0069 9.27806 21.5771 11.7033 21.8647M19.0168 21.8647C17.8176 22.0069 16.5973 22.0801 15.3598 22.0801C14.1225 22.0801 12.9023 22.0069 11.7033 21.8647M19.0168 21.8647C19.1358 22.2351 19.2001 22.6301 19.2001 23.0401C19.2001 25.1609 17.4808 26.8801 15.3601 26.8801C13.2393 26.8801 11.5201 25.1609 11.5201 23.0401C11.5201 22.6301 11.5843 22.2352 11.7033 21.8647" stroke="#6B7280" stroke-width="1.5" stroke-linecap="round" stroke-linejoin="round"/>
</svg>
