<svg width="32" height="32" viewBox="0 0 32 32" fill="none" xmlns="http://www.w3.org/2000/svg">
<path d="M24.75 16.625V21.625C24.75 21.9565 24.6183 22.2745 24.3839 22.5089C24.1495 22.7433 23.8315 22.875 23.5 22.875H8.5C8.16848 22.875 7.85054 22.7433 7.61612 22.5089C7.3817 22.2745 7.25 21.9565 7.25 21.625V16.625C7.25 16.2935 7.3817 15.9755 7.61612 15.7411C7.85054 15.5067 8.16848 15.375 8.5 15.375H11.625C11.7908 15.375 11.9497 15.4408 12.0669 15.5581C12.1842 15.6753 12.25 15.8342 12.25 16C12.25 16.1658 12.1842 16.3247 12.0669 16.4419C11.9497 16.5592 11.7908 16.625 11.625 16.625H8.5V21.625H23.5V16.625H20.375C20.2092 16.625 20.0503 16.5592 19.9331 16.4419C19.8158 16.3247 19.75 16.1658 19.75 16C19.75 15.8342 19.8158 15.6753 19.9331 15.5581C20.0503 15.4408 20.2092 15.375 20.375 15.375H23.5C23.8315 15.375 24.1495 15.5067 24.3839 15.7411C24.6183 15.9755 24.75 16.2935 24.75 16.625ZM15.5578 16.4422C15.6159 16.5003 15.6848 16.5464 15.7607 16.5779C15.8365 16.6093 15.9179 16.6255 16 16.6255C16.0821 16.6255 16.1635 16.6093 16.2393 16.5779C16.3152 16.5464 16.3841 16.5003 16.4422 16.4422L20.1922 12.6922C20.3095 12.5749 20.3753 12.4159 20.3753 12.25C20.3753 12.0841 20.3095 11.9251 20.1922 11.8078C20.0749 11.6905 19.9159 11.6247 19.75 11.6247C19.5841 11.6247 19.4251 11.6905 19.3078 11.8078L16.625 14.4914V7.875C16.625 7.70924 16.5592 7.55027 16.4419 7.43306C16.3247 7.31585 16.1658 7.25 16 7.25C15.8342 7.25 15.6753 7.31585 15.5581 7.43306C15.4408 7.55027 15.375 7.70924 15.375 7.875V14.4914L12.6922 11.8078C12.5749 11.6905 12.4159 11.6247 12.25 11.6247C12.0841 11.6247 11.9251 11.6905 11.8078 11.8078C11.6905 11.9251 11.6247 12.0841 11.6247 12.25C11.6247 12.4159 11.6905 12.5749 11.8078 12.6922L15.5578 16.4422ZM21.625 19.125C21.625 18.9396 21.57 18.7583 21.467 18.6042C21.364 18.45 21.2176 18.3298 21.0463 18.2589C20.875 18.1879 20.6865 18.1693 20.5046 18.2055C20.3227 18.2417 20.1557 18.331 20.0246 18.4621C19.8935 18.5932 19.8042 18.7602 19.768 18.9421C19.7318 19.124 19.7504 19.3125 19.8214 19.4838C19.8923 19.6551 20.0125 19.8015 20.1667 19.9045C20.3208 20.0075 20.5021 20.0625 20.6875 20.0625C20.9361 20.0625 21.1746 19.9637 21.3504 19.7879C21.5262 19.6121 21.625 19.3736 21.625 19.125Z" fill="#374151"/>
</svg>
