<svg width="32" height="32" viewBox="0 0 32 32" fill="none" xmlns="http://www.w3.org/2000/svg">
<path d="M24.75 16.625V21.625C24.75 21.9565 24.6183 22.2745 24.3839 22.5089C24.1495 22.7433 23.8315 22.875 23.5 22.875H8.5C8.16848 22.875 7.85054 22.7433 7.61612 22.5089C7.3817 22.2745 7.25 21.9565 7.25 21.625V16.625C7.25 16.2935 7.3817 15.9755 7.61612 15.7411C7.85054 15.5067 8.16848 15.375 8.5 15.375H12.25C12.4158 15.375 12.5747 15.4409 12.6919 15.5581C12.8092 15.6753 12.875 15.8342 12.875 16C12.875 16.1658 12.8092 16.3247 12.6919 16.4419C12.5747 16.5592 12.4158 16.625 12.25 16.625H8.5V21.625H23.5V16.625H19.75C19.5842 16.625 19.4253 16.5592 19.3081 16.4419C19.1908 16.3247 19.125 16.1658 19.125 16C19.125 15.8342 19.1908 15.6753 19.3081 15.5581C19.4253 15.4409 19.5842 15.375 19.75 15.375H23.5C23.8315 15.375 24.1495 15.5067 24.3839 15.7411C24.6183 15.9755 24.75 16.2935 24.75 16.625ZM12.6922 12.0672L15.375 9.3836V16C15.375 16.1658 15.4408 16.3247 15.5581 16.4419C15.6753 16.5592 15.8342 16.625 16 16.625C16.1658 16.625 16.3247 16.5592 16.4419 16.4419C16.5592 16.3247 16.625 16.1658 16.625 16V9.3836L19.3078 12.0672C19.4251 12.1845 19.5841 12.2504 19.75 12.2504C19.9159 12.2504 20.0749 12.1845 20.1922 12.0672C20.3095 11.9499 20.3753 11.7909 20.3753 11.625C20.3753 11.4592 20.3095 11.3001 20.1922 11.1828L16.4422 7.43282C16.3841 7.37471 16.3152 7.32861 16.2393 7.29715C16.1635 7.2657 16.0821 7.24951 16 7.24951C15.9179 7.24951 15.8365 7.2657 15.7607 7.29715C15.6848 7.32861 15.6159 7.37471 15.5578 7.43282L11.8078 11.1828C11.6905 11.3001 11.6247 11.4592 11.6247 11.625C11.6247 11.7909 11.6905 11.9499 11.8078 12.0672C11.9251 12.1845 12.0841 12.2504 12.25 12.2504C12.4159 12.2504 12.5749 12.1845 12.6922 12.0672ZM21.625 19.125C21.625 18.9396 21.57 18.7583 21.467 18.6042C21.364 18.45 21.2176 18.3298 21.0463 18.2589C20.875 18.1879 20.6865 18.1693 20.5046 18.2055C20.3227 18.2417 20.1557 18.331 20.0246 18.4621C19.8935 18.5932 19.8042 18.7602 19.768 18.9421C19.7318 19.124 19.7504 19.3125 19.8214 19.4838C19.8923 19.6551 20.0125 19.8015 20.1667 19.9045C20.3208 20.0075 20.5021 20.0625 20.6875 20.0625C20.9361 20.0625 21.1746 19.9637 21.3504 19.7879C21.5262 19.6121 21.625 19.3736 21.625 19.125Z" fill="#374151"/>
</svg>
