<svg width="30" height="30" viewBox="0 0 30 30" fill="none" xmlns="http://www.w3.org/2000/svg">
<path d="M15.652 5.25938C16.1235 5.18386 16.8842 5.36377 17.2521 5.66928C17.7522 6.08455 18.221 6.59319 18.6827 7.0562C19.346 7.72293 20.0125 8.38635 20.6824 9.04642L21.9445 10.3159C23.0266 11.3955 23.7884 12.135 24.3033 13.6443C25.056 15.8501 24.6635 18.2986 23.1746 20.1122C22.7146 20.6726 22.1774 21.1643 21.6772 21.6769C20.8243 22.5508 19.977 23.4104 18.7877 23.8059C17.5739 24.2452 16.6149 24.1588 15.3533 24.1589L12.6271 24.159C12.2538 24.1602 11.5541 24.1799 11.2114 24.132C10.1554 23.9845 9.21255 23.5527 8.45709 22.8002C7.7025 22.0484 7.22141 21.0655 7.09053 20.0084C7.0264 19.4454 7.05783 18.2545 7.05679 17.6456C6.94221 17.4811 6.7101 17.2685 6.56162 17.1228L5.80924 16.3758C5.28125 15.8489 4.97341 15.5803 4.79281 14.8303C4.65529 14.2335 4.75617 13.6067 5.07397 13.0832C5.43822 12.4908 5.9936 12.1524 6.65759 11.9918C6.55209 11.7685 6.41385 11.5043 6.34597 11.2686C5.81897 9.4382 7.94812 7.60612 9.63924 8.60009C9.79042 8.13814 9.8391 7.81778 10.1502 7.43361C11.0465 6.32711 12.4778 6.25349 13.5663 7.11641C13.8684 6.05679 14.537 5.3794 15.652 5.25938Z" fill="black"/>
<path d="M15.8256 6.27455C16.29 6.25495 16.6579 6.49675 16.974 6.81049C17.9819 7.81094 18.9799 8.82133 19.9847 9.82493L21.2864 11.1226C21.834 11.6691 22.3517 12.1631 22.7701 12.8198C23.2712 13.6062 23.6517 14.8077 23.6625 15.7343C23.681 17.3456 23.0199 18.8699 21.8812 20.0054C21.4971 20.3884 21.0057 20.8686 20.6464 21.2426C19.4403 22.4986 18.4373 23.1159 16.6568 23.1018C15.6324 23.0906 14.6154 23.1208 13.5902 23.1033C11.9624 23.0753 10.4683 23.3622 9.20108 22.079C8.10402 20.9682 8.12966 20.1132 8.11086 18.6699C8.13021 18.6923 8.14997 18.7143 8.17013 18.7359C8.55293 19.1449 8.9905 19.5776 9.4121 19.9416C9.70043 20.1906 10.2048 19.8154 10.1841 19.502C10.1599 19.1365 9.59828 18.6906 9.33462 18.4319L7.04329 16.1353C6.70893 15.8 6.24316 15.394 5.97758 15.0331C5.42571 14.2831 5.97553 13.0693 6.93367 13.0497C7.13597 13.0455 7.50519 13.0506 7.67062 13.1561C8.27864 13.5437 8.72717 14.1825 9.26892 14.6574C9.3942 14.7671 9.55287 14.8322 9.71459 14.8179C9.84704 14.8068 9.96944 14.7428 10.0543 14.6405C10.1378 14.5399 10.216 14.3546 10.1803 14.2239C10.0499 13.7472 7.91774 12.0143 7.50339 11.3549C7.40631 11.2005 7.35196 11.0216 7.33354 10.8408C7.29842 10.4957 7.38491 10.1473 7.60755 9.87645C7.84153 9.59178 8.15652 9.42802 8.52332 9.39453C8.78689 9.37018 9.05145 9.42894 9.27994 9.56257C9.52426 9.70646 9.84868 10.0515 10.0569 10.2595L11.1518 11.3601C11.3553 11.5664 11.9737 12.288 12.2754 12.2442C12.6151 12.2058 12.9266 11.7915 12.6896 11.4787C12.1851 10.8132 11.4501 10.2795 10.9289 9.6227C10.5954 9.20236 10.613 8.47371 10.9667 8.07792C11.934 6.99552 12.8502 7.77764 13.592 8.60983C13.8837 8.87944 14.1746 9.23974 14.4754 9.49159C14.7649 9.73399 15.2887 9.64272 15.3283 9.20801C15.3689 8.76197 15.0688 8.68751 14.8465 8.37817C14.7129 8.18955 14.628 7.97074 14.5996 7.7413C14.5013 6.94636 15.0539 6.35719 15.8256 6.27455Z" fill="#F9F8F8"/>
</svg>
