<svg width="67" height="67" viewBox="0 0 67 67" fill="none" xmlns="http://www.w3.org/2000/svg">
<path d="M52.8728 21.5117L44.7016 13.3325C39.1157 7.74118 36.3229 4.94553 33.3231 5.60731C30.3235 6.26912 28.9634 9.98098 26.2433 17.4047L24.4023 22.4293C23.6771 24.4084 23.3146 25.398 22.6622 26.1634C22.3695 26.5069 22.0365 26.8137 21.6703 27.0773C20.8543 27.6649 19.8391 27.9447 17.8088 28.5044C13.2325 29.7659 10.9444 30.3968 10.0821 31.894C9.7094 32.5411 9.51542 33.2759 9.52014 34.0231C9.53105 35.7509 11.2092 37.4308 14.5656 40.7906L18.4645 44.6941L6.12819 57.042C5.30704 57.8639 5.30704 59.1967 6.12819 60.0186C6.94933 60.8405 8.28069 60.8405 9.10183 60.0186L21.4385 47.6702L25.4791 51.7146C28.8567 55.0956 30.5457 56.7862 32.284 56.7887C33.0166 56.7898 33.7365 56.5993 34.3729 56.2363C35.883 55.3745 36.5172 53.0695 37.7856 48.4596C38.3434 46.433 38.6221 45.4195 39.2075 44.6037C39.4638 44.2468 39.7609 43.921 40.0933 43.6333C40.8521 42.9762 41.8352 42.6069 43.8014 41.8682L48.8838 39.9585C56.2256 37.2001 59.8966 35.8209 60.5437 32.8294C61.1906 29.8376 58.4179 27.0623 52.8728 21.5117Z" fill="#F97316"/>
</svg>
