<svg width="18" height="18" viewBox="0 0 18 18" fill="none" xmlns="http://www.w3.org/2000/svg">
<path d="M14.3876 5.85387L12.1641 3.62816C10.6441 2.10668 9.8841 1.34593 9.0678 1.52601C8.25157 1.7061 7.88145 2.71616 7.14127 4.7363L6.6403 6.10358C6.44297 6.64213 6.34431 6.9114 6.16679 7.11969C6.08714 7.21316 5.99652 7.29665 5.89688 7.36838C5.67483 7.52828 5.39858 7.6044 4.84609 7.75673C3.6008 8.1 2.97816 8.27168 2.74353 8.67908C2.6421 8.85518 2.58931 9.05513 2.5906 9.25845C2.59357 9.72863 3.05023 10.1858 3.96357 11.1L5.02451 12.1622L1.66759 15.5223C1.44414 15.7459 1.44414 16.1087 1.66759 16.3323C1.89103 16.556 2.25332 16.556 2.47677 16.3323L5.83381 12.9721L6.93331 14.0726C7.85242 14.9927 8.31202 15.4527 8.78505 15.4534C8.9844 15.4537 9.1803 15.4019 9.35347 15.3031C9.7644 15.0686 9.93697 14.4413 10.2821 13.1869C10.4339 12.6354 10.5097 12.3596 10.669 12.1376C10.7388 12.0405 10.8196 11.9519 10.9101 11.8736C11.1166 11.6948 11.3841 11.5943 11.9191 11.3933L13.3021 10.8736C15.3 10.123 16.2989 9.74768 16.475 8.93363C16.651 8.1195 15.8965 7.36429 14.3876 5.85387Z" fill="#F97316"/>
</svg>
