<svg width="32" height="32" viewBox="0 0 32 32" fill="none" xmlns="http://www.w3.org/2000/svg">
<g clip-path="url(#clip0_1309_4662)">
<path d="M21.0835 13.8561C8.65683 21.7204 10.8747 10.183 11.9735 8.53854C13.0724 6.89405 14.6341 5.61232 16.4614 4.85545C18.2887 4.09857 20.2993 3.90054 22.2391 4.28639C24.1789 4.67224 25.9608 5.62465 27.3593 7.02317C28.7578 8.4217 29.7102 10.2035 30.0961 12.1433C30.4819 14.0832 30.2839 16.0938 29.527 17.9211C28.7702 19.7483 27.4884 21.3101 25.8439 22.4089C24.1995 23.5078 22.266 24.0942 20.2882 24.0942H9.28824C8.29569 24.093 7.31474 23.8807 6.4105 23.4715C5.50626 23.0622 4.69938 22.4653 4.04343 21.7204C3.38748 20.9755 2.89743 20.0996 2.60581 19.1509C2.3142 18.2021 2.22768 17.2022 2.352 16.2175C2.47632 15.2327 2.80864 14.2857 3.3269 13.4392C3.84515 12.5927 4.53751 11.8661 5.35802 11.3076C6.17852 10.7491 7.10843 10.3715 8.08601 10.1998C9.0636 10.0281 10.0665 10.0662 11.0282 10.3117" stroke="black" stroke-width="2" stroke-linecap="round" stroke-linejoin="round"/>
<path d="M20.1235 18.8634L21.7033 13.706L16.5479 12.1297L19.4053 10.612L24.5607 12.1884L22.9816 17.3431L20.1235 18.8634Z" fill="black"/>
</g>
<defs>
<clipPath id="clip0_1309_4662">
<rect width="32" height="32" fill="white"/>
</clipPath>
</defs>
</svg>
