<svg width="24" height="24" viewBox="0 0 24 24" fill="none" xmlns="http://www.w3.org/2000/svg">
<path d="M22.4874 7.21635L19.6348 4.36366C19.5009 4.22984 19.3194 4.15466 19.1302 4.15466C18.9409 4.15466 18.7594 4.22984 18.6256 4.36366C18.4918 4.49748 18.4166 4.67898 18.4166 4.86823C18.4166 5.05748 18.4918 5.23898 18.6256 5.3728L20.2615 7.00775H19.1302C14.7326 7.00775 13.6878 9.51455 12.7669 11.7254C11.9307 13.7321 11.2585 15.3438 8.35593 15.5444C8.17379 14.6797 7.67706 13.9135 6.96205 13.3942C6.24704 12.8749 5.3647 12.6396 4.48607 12.7339C3.60744 12.8282 2.79513 13.2454 2.20662 13.9046C1.61811 14.5638 1.29533 15.4181 1.30085 16.3017C1.30637 17.1854 1.63981 18.0355 2.23651 18.6873C2.83322 19.3391 3.65068 19.7461 4.53042 19.8294C5.41015 19.9127 6.28949 19.6664 6.99795 19.1383C7.70641 18.6101 8.19352 17.8377 8.36485 16.9708C12.2213 16.7345 13.2091 14.3721 14.0827 12.2736C14.9768 10.1279 15.6829 8.43409 19.1302 8.43409H20.2615L18.6256 10.069C18.4918 10.2029 18.4166 10.3844 18.4166 10.5736C18.4166 10.7629 18.4918 10.9444 18.6256 11.0782C18.7594 11.212 18.9409 11.2872 19.1302 11.2872C19.3194 11.2872 19.5009 11.212 19.6348 11.0782L22.4874 8.22549C22.5538 8.15926 22.6064 8.0806 22.6422 7.99402C22.6781 7.90745 22.6966 7.81464 22.6966 7.72092C22.6966 7.6272 22.6781 7.5344 22.6422 7.44782C22.6064 7.36124 22.5538 7.28259 22.4874 7.21635ZM4.86674 18.4185C4.44358 18.4185 4.02993 18.293 3.67808 18.0579C3.32624 17.8228 3.05201 17.4887 2.89008 17.0977C2.72814 16.7068 2.68578 16.2766 2.76833 15.8616C2.85088 15.4466 3.05465 15.0653 3.35387 14.7661C3.65309 14.4669 4.03431 14.2631 4.44934 14.1806C4.86436 14.098 5.29455 14.1404 5.68549 14.3023C6.07644 14.4643 6.41059 14.7385 6.64568 15.0903C6.88077 15.4422 7.00625 15.8558 7.00625 16.279C7.00625 16.8464 6.78084 17.3906 6.3796 17.7919C5.97837 18.1931 5.43417 18.4185 4.86674 18.4185Z" fill="#4B5563"/>
</svg>
