<svg width="20" height="20" viewBox="0 0 20 20" fill="none" xmlns="http://www.w3.org/2000/svg">
<path d="M14.5846 5.41663H14.593M5.83464 1.66663H14.168C16.4692 1.66663 18.3346 3.53211 18.3346 5.83329V14.1666C18.3346 16.4678 16.4692 18.3333 14.168 18.3333H5.83464C3.53345 18.3333 1.66797 16.4678 1.66797 14.1666V5.83329C1.66797 3.53211 3.53345 1.66663 5.83464 1.66663ZM13.3346 9.47496C13.4375 10.1685 13.319 10.8768 12.9961 11.4991C12.6732 12.1215 12.1623 12.6261 11.536 12.9414C10.9097 13.2566 10.2 13.3663 9.50779 13.2549C8.81557 13.1435 8.1761 12.8167 7.68033 12.3209C7.18457 11.8252 6.85775 11.1857 6.74636 10.4935C6.63497 9.80125 6.74469 9.09154 7.05991 8.46527C7.37512 7.839 7.87979 7.32808 8.50212 7.00516C9.12445 6.68224 9.83276 6.56378 10.5263 6.66663C11.2337 6.77153 11.8887 7.10118 12.3944 7.60688C12.9001 8.11258 13.2297 8.76752 13.3346 9.47496Z" stroke="#6B7280" stroke-width="1.5" stroke-linecap="round" stroke-linejoin="round"/>
</svg>
