<svg width="20" height="20" viewBox="0 0 20 20" fill="none" xmlns="http://www.w3.org/2000/svg">
<path d="M13.3346 6.66663C14.6607 6.66663 15.9325 7.19341 16.8702 8.13109C17.8079 9.06877 18.3346 10.3405 18.3346 11.6666V17.5H15.0013V11.6666C15.0013 11.2246 14.8257 10.8007 14.5131 10.4881C14.2006 10.1756 13.7767 9.99996 13.3346 9.99996C12.8926 9.99996 12.4687 10.1756 12.1561 10.4881C11.8436 10.8007 11.668 11.2246 11.668 11.6666V17.5H8.33464V11.6666C8.33464 10.3405 8.86142 9.06877 9.7991 8.13109C10.7368 7.19341 12.0086 6.66663 13.3346 6.66663Z" stroke="#6B7280" stroke-width="1.5" stroke-linecap="round" stroke-linejoin="round"/>
<path d="M5.0013 7.49996H1.66797V17.5H5.0013V7.49996Z" stroke="#6B7280" stroke-width="1.5" stroke-linecap="round" stroke-linejoin="round"/>
<path d="M3.33464 4.99996C4.25511 4.99996 5.0013 4.25377 5.0013 3.33329C5.0013 2.41282 4.25511 1.66663 3.33464 1.66663C2.41416 1.66663 1.66797 2.41282 1.66797 3.33329C1.66797 4.25377 2.41416 4.99996 3.33464 4.99996Z" stroke="#6B7280" stroke-width="1.5" stroke-linecap="round" stroke-linejoin="round"/>
</svg>
